<?xml version="1.0" encoding="utf-8" standalone="no"?>
<!DOCTYPE svg PUBLIC "-//W3C//DTD SVG 1.1//EN"
  "http://www.w3.org/Graphics/SVG/1.1/DTD/svg11.dtd">
<svg xmlns:xlink="http://www.w3.org/1999/xlink" width="1152pt" height="576pt" viewBox="0 0 1152 576" xmlns="http://www.w3.org/2000/svg" version="1.1">
 <metadata>
  <rdf:RDF xmlns:dc="http://purl.org/dc/elements/1.1/" xmlns:cc="http://creativecommons.org/ns#" xmlns:rdf="http://www.w3.org/1999/02/22-rdf-syntax-ns#">
   <cc:Work>
    <dc:type rdf:resource="http://purl.org/dc/dcmitype/StillImage"/>
    <dc:date>2023-07-09T21:03:23.398746</dc:date>
    <dc:format>image/svg+xml</dc:format>
    <dc:creator>
     <cc:Agent>
      <dc:title>Matplotlib v3.7.1, https://matplotlib.org/</dc:title>
     </cc:Agent>
    </dc:creator>
   </cc:Work>
  </rdf:RDF>
 </metadata>
 <defs>
  <style type="text/css">*{stroke-linejoin: round; stroke-linecap: butt}</style>
 </defs>
 <g id="figure_1">
  <g id="patch_1">
   <path d="M 0 576 
L 1152 576 
L 1152 0 
L 0 0 
z
" style="fill: #ffffff"/>
  </g>
  <g id="axes_1">
   <g id="patch_2">
    <path d="M 144 512.64 
L 1036.8 512.64 
L 1036.8 69.12 
L 144 69.12 
z
" style="fill: #ffffff"/>
   </g>
   <g id="matplotlib.axis_1">
    <g id="xtick_1">
     <g id="line2d_1">
      <defs>
       <path id="m36c2055dec" d="M 0 0 
L 0 3.5 
" style="stroke: #000000; stroke-width: 0.8"/>
      </defs>
      <g>
       <use xlink:href="#m36c2055dec" x="184.581818" y="512.64" style="stroke: #000000; stroke-width: 0.8"/>
      </g>
     </g>
     <g id="text_1">
      <!-- 0 -->
      <g transform="translate(181.400568 527.238438) scale(0.1 -0.1)">
       <defs>
        <path id="DejaVuSans-30" d="M 2034 4250 
Q 1547 4250 1301 3770 
Q 1056 3291 1056 2328 
Q 1056 1369 1301 889 
Q 1547 409 2034 409 
Q 2525 409 2770 889 
Q 3016 1369 3016 2328 
Q 3016 3291 2770 3770 
Q 2525 4250 2034 4250 
z
M 2034 4750 
Q 2819 4750 3233 4129 
Q 3647 3509 3647 2328 
Q 3647 1150 3233 529 
Q 2819 -91 2034 -91 
Q 1250 -91 836 529 
Q 422 1150 422 2328 
Q 422 3509 836 4129 
Q 1250 4750 2034 4750 
z
" transform="scale(0.015625)"/>
       </defs>
       <use xlink:href="#DejaVuSans-30"/>
      </g>
     </g>
    </g>
    <g id="xtick_2">
     <g id="line2d_2">
      <g>
       <use xlink:href="#m36c2055dec" x="324.182156" y="512.64" style="stroke: #000000; stroke-width: 0.8"/>
      </g>
     </g>
     <g id="text_2">
      <!-- 500 -->
      <g transform="translate(314.638406 527.238438) scale(0.1 -0.1)">
       <defs>
        <path id="DejaVuSans-35" d="M 691 4666 
L 3169 4666 
L 3169 4134 
L 1269 4134 
L 1269 2991 
Q 1406 3038 1543 3061 
Q 1681 3084 1819 3084 
Q 2600 3084 3056 2656 
Q 3513 2228 3513 1497 
Q 3513 744 3044 326 
Q 2575 -91 1722 -91 
Q 1428 -91 1123 -41 
Q 819 9 494 109 
L 494 744 
Q 775 591 1075 516 
Q 1375 441 1709 441 
Q 2250 441 2565 725 
Q 2881 1009 2881 1497 
Q 2881 1984 2565 2268 
Q 2250 2553 1709 2553 
Q 1456 2553 1204 2497 
Q 953 2441 691 2322 
L 691 4666 
z
" transform="scale(0.015625)"/>
       </defs>
       <use xlink:href="#DejaVuSans-35"/>
       <use xlink:href="#DejaVuSans-30" x="63.623047"/>
       <use xlink:href="#DejaVuSans-30" x="127.246094"/>
      </g>
     </g>
    </g>
    <g id="xtick_3">
     <g id="line2d_3">
      <g>
       <use xlink:href="#m36c2055dec" x="463.782494" y="512.64" style="stroke: #000000; stroke-width: 0.8"/>
      </g>
     </g>
     <g id="text_3">
      <!-- 1000 -->
      <g transform="translate(451.057494 527.238438) scale(0.1 -0.1)">
       <defs>
        <path id="DejaVuSans-31" d="M 794 531 
L 1825 531 
L 1825 4091 
L 703 3866 
L 703 4441 
L 1819 4666 
L 2450 4666 
L 2450 531 
L 3481 531 
L 3481 0 
L 794 0 
L 794 531 
z
" transform="scale(0.015625)"/>
       </defs>
       <use xlink:href="#DejaVuSans-31"/>
       <use xlink:href="#DejaVuSans-30" x="63.623047"/>
       <use xlink:href="#DejaVuSans-30" x="127.246094"/>
       <use xlink:href="#DejaVuSans-30" x="190.869141"/>
      </g>
     </g>
    </g>
    <g id="xtick_4">
     <g id="line2d_4">
      <g>
       <use xlink:href="#m36c2055dec" x="603.382831" y="512.64" style="stroke: #000000; stroke-width: 0.8"/>
      </g>
     </g>
     <g id="text_4">
      <!-- 1500 -->
      <g transform="translate(590.657831 527.238438) scale(0.1 -0.1)">
       <use xlink:href="#DejaVuSans-31"/>
       <use xlink:href="#DejaVuSans-35" x="63.623047"/>
       <use xlink:href="#DejaVuSans-30" x="127.246094"/>
       <use xlink:href="#DejaVuSans-30" x="190.869141"/>
      </g>
     </g>
    </g>
    <g id="xtick_5">
     <g id="line2d_5">
      <g>
       <use xlink:href="#m36c2055dec" x="742.983169" y="512.64" style="stroke: #000000; stroke-width: 0.8"/>
      </g>
     </g>
     <g id="text_5">
      <!-- 2000 -->
      <g transform="translate(730.258169 527.238438) scale(0.1 -0.1)">
       <defs>
        <path id="DejaVuSans-32" d="M 1228 531 
L 3431 531 
L 3431 0 
L 469 0 
L 469 531 
Q 828 903 1448 1529 
Q 2069 2156 2228 2338 
Q 2531 2678 2651 2914 
Q 2772 3150 2772 3378 
Q 2772 3750 2511 3984 
Q 2250 4219 1831 4219 
Q 1534 4219 1204 4116 
Q 875 4013 500 3803 
L 500 4441 
Q 881 4594 1212 4672 
Q 1544 4750 1819 4750 
Q 2544 4750 2975 4387 
Q 3406 4025 3406 3419 
Q 3406 3131 3298 2873 
Q 3191 2616 2906 2266 
Q 2828 2175 2409 1742 
Q 1991 1309 1228 531 
z
" transform="scale(0.015625)"/>
       </defs>
       <use xlink:href="#DejaVuSans-32"/>
       <use xlink:href="#DejaVuSans-30" x="63.623047"/>
       <use xlink:href="#DejaVuSans-30" x="127.246094"/>
       <use xlink:href="#DejaVuSans-30" x="190.869141"/>
      </g>
     </g>
    </g>
    <g id="xtick_6">
     <g id="line2d_6">
      <g>
       <use xlink:href="#m36c2055dec" x="882.583507" y="512.64" style="stroke: #000000; stroke-width: 0.8"/>
      </g>
     </g>
     <g id="text_6">
      <!-- 2500 -->
      <g transform="translate(869.858507 527.238438) scale(0.1 -0.1)">
       <use xlink:href="#DejaVuSans-32"/>
       <use xlink:href="#DejaVuSans-35" x="63.623047"/>
       <use xlink:href="#DejaVuSans-30" x="127.246094"/>
       <use xlink:href="#DejaVuSans-30" x="190.869141"/>
      </g>
     </g>
    </g>
    <g id="xtick_7">
     <g id="line2d_7">
      <g>
       <use xlink:href="#m36c2055dec" x="1022.183845" y="512.64" style="stroke: #000000; stroke-width: 0.8"/>
      </g>
     </g>
     <g id="text_7">
      <!-- 3000 -->
      <g transform="translate(1009.458845 527.238438) scale(0.1 -0.1)">
       <defs>
        <path id="DejaVuSans-33" d="M 2597 2516 
Q 3050 2419 3304 2112 
Q 3559 1806 3559 1356 
Q 3559 666 3084 287 
Q 2609 -91 1734 -91 
Q 1441 -91 1130 -33 
Q 819 25 488 141 
L 488 750 
Q 750 597 1062 519 
Q 1375 441 1716 441 
Q 2309 441 2620 675 
Q 2931 909 2931 1356 
Q 2931 1769 2642 2001 
Q 2353 2234 1838 2234 
L 1294 2234 
L 1294 2753 
L 1863 2753 
Q 2328 2753 2575 2939 
Q 2822 3125 2822 3475 
Q 2822 3834 2567 4026 
Q 2313 4219 1838 4219 
Q 1578 4219 1281 4162 
Q 984 4106 628 3988 
L 628 4550 
Q 988 4650 1302 4700 
Q 1616 4750 1894 4750 
Q 2613 4750 3031 4423 
Q 3450 4097 3450 3541 
Q 3450 3153 3228 2886 
Q 3006 2619 2597 2516 
z
" transform="scale(0.015625)"/>
       </defs>
       <use xlink:href="#DejaVuSans-33"/>
       <use xlink:href="#DejaVuSans-30" x="63.623047"/>
       <use xlink:href="#DejaVuSans-30" x="127.246094"/>
       <use xlink:href="#DejaVuSans-30" x="190.869141"/>
      </g>
     </g>
    </g>
    <g id="text_8">
     <!-- Frame number -->
     <g transform="translate(553.717188 540.916563) scale(0.1 -0.1)">
      <defs>
       <path id="DejaVuSans-46" d="M 628 4666 
L 3309 4666 
L 3309 4134 
L 1259 4134 
L 1259 2759 
L 3109 2759 
L 3109 2228 
L 1259 2228 
L 1259 0 
L 628 0 
L 628 4666 
z
" transform="scale(0.015625)"/>
       <path id="DejaVuSans-72" d="M 2631 2963 
Q 2534 3019 2420 3045 
Q 2306 3072 2169 3072 
Q 1681 3072 1420 2755 
Q 1159 2438 1159 1844 
L 1159 0 
L 581 0 
L 581 3500 
L 1159 3500 
L 1159 2956 
Q 1341 3275 1631 3429 
Q 1922 3584 2338 3584 
Q 2397 3584 2469 3576 
Q 2541 3569 2628 3553 
L 2631 2963 
z
" transform="scale(0.015625)"/>
       <path id="DejaVuSans-61" d="M 2194 1759 
Q 1497 1759 1228 1600 
Q 959 1441 959 1056 
Q 959 750 1161 570 
Q 1363 391 1709 391 
Q 2188 391 2477 730 
Q 2766 1069 2766 1631 
L 2766 1759 
L 2194 1759 
z
M 3341 1997 
L 3341 0 
L 2766 0 
L 2766 531 
Q 2569 213 2275 61 
Q 1981 -91 1556 -91 
Q 1019 -91 701 211 
Q 384 513 384 1019 
Q 384 1609 779 1909 
Q 1175 2209 1959 2209 
L 2766 2209 
L 2766 2266 
Q 2766 2663 2505 2880 
Q 2244 3097 1772 3097 
Q 1472 3097 1187 3025 
Q 903 2953 641 2809 
L 641 3341 
Q 956 3463 1253 3523 
Q 1550 3584 1831 3584 
Q 2591 3584 2966 3190 
Q 3341 2797 3341 1997 
z
" transform="scale(0.015625)"/>
       <path id="DejaVuSans-6d" d="M 3328 2828 
Q 3544 3216 3844 3400 
Q 4144 3584 4550 3584 
Q 5097 3584 5394 3201 
Q 5691 2819 5691 2113 
L 5691 0 
L 5113 0 
L 5113 2094 
Q 5113 2597 4934 2840 
Q 4756 3084 4391 3084 
Q 3944 3084 3684 2787 
Q 3425 2491 3425 1978 
L 3425 0 
L 2847 0 
L 2847 2094 
Q 2847 2600 2669 2842 
Q 2491 3084 2119 3084 
Q 1678 3084 1418 2786 
Q 1159 2488 1159 1978 
L 1159 0 
L 581 0 
L 581 3500 
L 1159 3500 
L 1159 2956 
Q 1356 3278 1631 3431 
Q 1906 3584 2284 3584 
Q 2666 3584 2933 3390 
Q 3200 3197 3328 2828 
z
" transform="scale(0.015625)"/>
       <path id="DejaVuSans-65" d="M 3597 1894 
L 3597 1613 
L 953 1613 
Q 991 1019 1311 708 
Q 1631 397 2203 397 
Q 2534 397 2845 478 
Q 3156 559 3463 722 
L 3463 178 
Q 3153 47 2828 -22 
Q 2503 -91 2169 -91 
Q 1331 -91 842 396 
Q 353 884 353 1716 
Q 353 2575 817 3079 
Q 1281 3584 2069 3584 
Q 2775 3584 3186 3129 
Q 3597 2675 3597 1894 
z
M 3022 2063 
Q 3016 2534 2758 2815 
Q 2500 3097 2075 3097 
Q 1594 3097 1305 2825 
Q 1016 2553 972 2059 
L 3022 2063 
z
" transform="scale(0.015625)"/>
       <path id="DejaVuSans-20" transform="scale(0.015625)"/>
       <path id="DejaVuSans-6e" d="M 3513 2113 
L 3513 0 
L 2938 0 
L 2938 2094 
Q 2938 2591 2744 2837 
Q 2550 3084 2163 3084 
Q 1697 3084 1428 2787 
Q 1159 2491 1159 1978 
L 1159 0 
L 581 0 
L 581 3500 
L 1159 3500 
L 1159 2956 
Q 1366 3272 1645 3428 
Q 1925 3584 2291 3584 
Q 2894 3584 3203 3211 
Q 3513 2838 3513 2113 
z
" transform="scale(0.015625)"/>
       <path id="DejaVuSans-75" d="M 544 1381 
L 544 3500 
L 1119 3500 
L 1119 1403 
Q 1119 906 1312 657 
Q 1506 409 1894 409 
Q 2359 409 2629 706 
Q 2900 1003 2900 1516 
L 2900 3500 
L 3475 3500 
L 3475 0 
L 2900 0 
L 2900 538 
Q 2691 219 2414 64 
Q 2138 -91 1772 -91 
Q 1169 -91 856 284 
Q 544 659 544 1381 
z
M 1991 3584 
L 1991 3584 
z
" transform="scale(0.015625)"/>
       <path id="DejaVuSans-62" d="M 3116 1747 
Q 3116 2381 2855 2742 
Q 2594 3103 2138 3103 
Q 1681 3103 1420 2742 
Q 1159 2381 1159 1747 
Q 1159 1113 1420 752 
Q 1681 391 2138 391 
Q 2594 391 2855 752 
Q 3116 1113 3116 1747 
z
M 1159 2969 
Q 1341 3281 1617 3432 
Q 1894 3584 2278 3584 
Q 2916 3584 3314 3078 
Q 3713 2572 3713 1747 
Q 3713 922 3314 415 
Q 2916 -91 2278 -91 
Q 1894 -91 1617 61 
Q 1341 213 1159 525 
L 1159 0 
L 581 0 
L 581 4863 
L 1159 4863 
L 1159 2969 
z
" transform="scale(0.015625)"/>
      </defs>
      <use xlink:href="#DejaVuSans-46"/>
      <use xlink:href="#DejaVuSans-72" x="50.269531"/>
      <use xlink:href="#DejaVuSans-61" x="91.382812"/>
      <use xlink:href="#DejaVuSans-6d" x="152.662109"/>
      <use xlink:href="#DejaVuSans-65" x="250.074219"/>
      <use xlink:href="#DejaVuSans-20" x="311.597656"/>
      <use xlink:href="#DejaVuSans-6e" x="343.384766"/>
      <use xlink:href="#DejaVuSans-75" x="406.763672"/>
      <use xlink:href="#DejaVuSans-6d" x="470.142578"/>
      <use xlink:href="#DejaVuSans-62" x="567.554688"/>
      <use xlink:href="#DejaVuSans-65" x="631.03125"/>
      <use xlink:href="#DejaVuSans-72" x="692.554688"/>
     </g>
    </g>
   </g>
   <g id="matplotlib.axis_2">
    <g id="ytick_1">
     <g id="line2d_8">
      <defs>
       <path id="m16ca54db57" d="M 0 0 
L -3.5 0 
" style="stroke: #000000; stroke-width: 0.8"/>
      </defs>
      <g>
       <use xlink:href="#m16ca54db57" x="144" y="493.70471" style="stroke: #000000; stroke-width: 0.8"/>
      </g>
     </g>
     <g id="text_9">
      <!-- 0.0 -->
      <g transform="translate(121.096875 497.503929) scale(0.1 -0.1)">
       <defs>
        <path id="DejaVuSans-2e" d="M 684 794 
L 1344 794 
L 1344 0 
L 684 0 
L 684 794 
z
" transform="scale(0.015625)"/>
       </defs>
       <use xlink:href="#DejaVuSans-30"/>
       <use xlink:href="#DejaVuSans-2e" x="63.623047"/>
       <use xlink:href="#DejaVuSans-30" x="95.410156"/>
      </g>
     </g>
    </g>
    <g id="ytick_2">
     <g id="line2d_9">
      <g>
       <use xlink:href="#m16ca54db57" x="144" y="444.101218" style="stroke: #000000; stroke-width: 0.8"/>
      </g>
     </g>
     <g id="text_10">
      <!-- 0.2 -->
      <g transform="translate(121.096875 447.900437) scale(0.1 -0.1)">
       <use xlink:href="#DejaVuSans-30"/>
       <use xlink:href="#DejaVuSans-2e" x="63.623047"/>
       <use xlink:href="#DejaVuSans-32" x="95.410156"/>
      </g>
     </g>
    </g>
    <g id="ytick_3">
     <g id="line2d_10">
      <g>
       <use xlink:href="#m16ca54db57" x="144" y="394.497726" style="stroke: #000000; stroke-width: 0.8"/>
      </g>
     </g>
     <g id="text_11">
      <!-- 0.4 -->
      <g transform="translate(121.096875 398.296945) scale(0.1 -0.1)">
       <defs>
        <path id="DejaVuSans-34" d="M 2419 4116 
L 825 1625 
L 2419 1625 
L 2419 4116 
z
M 2253 4666 
L 3047 4666 
L 3047 1625 
L 3713 1625 
L 3713 1100 
L 3047 1100 
L 3047 0 
L 2419 0 
L 2419 1100 
L 313 1100 
L 313 1709 
L 2253 4666 
z
" transform="scale(0.015625)"/>
       </defs>
       <use xlink:href="#DejaVuSans-30"/>
       <use xlink:href="#DejaVuSans-2e" x="63.623047"/>
       <use xlink:href="#DejaVuSans-34" x="95.410156"/>
      </g>
     </g>
    </g>
    <g id="ytick_4">
     <g id="line2d_11">
      <g>
       <use xlink:href="#m16ca54db57" x="144" y="344.894234" style="stroke: #000000; stroke-width: 0.8"/>
      </g>
     </g>
     <g id="text_12">
      <!-- 0.6 -->
      <g transform="translate(121.096875 348.693453) scale(0.1 -0.1)">
       <defs>
        <path id="DejaVuSans-36" d="M 2113 2584 
Q 1688 2584 1439 2293 
Q 1191 2003 1191 1497 
Q 1191 994 1439 701 
Q 1688 409 2113 409 
Q 2538 409 2786 701 
Q 3034 994 3034 1497 
Q 3034 2003 2786 2293 
Q 2538 2584 2113 2584 
z
M 3366 4563 
L 3366 3988 
Q 3128 4100 2886 4159 
Q 2644 4219 2406 4219 
Q 1781 4219 1451 3797 
Q 1122 3375 1075 2522 
Q 1259 2794 1537 2939 
Q 1816 3084 2150 3084 
Q 2853 3084 3261 2657 
Q 3669 2231 3669 1497 
Q 3669 778 3244 343 
Q 2819 -91 2113 -91 
Q 1303 -91 875 529 
Q 447 1150 447 2328 
Q 447 3434 972 4092 
Q 1497 4750 2381 4750 
Q 2619 4750 2861 4703 
Q 3103 4656 3366 4563 
z
" transform="scale(0.015625)"/>
       </defs>
       <use xlink:href="#DejaVuSans-30"/>
       <use xlink:href="#DejaVuSans-2e" x="63.623047"/>
       <use xlink:href="#DejaVuSans-36" x="95.410156"/>
      </g>
     </g>
    </g>
    <g id="ytick_5">
     <g id="line2d_12">
      <g>
       <use xlink:href="#m16ca54db57" x="144" y="295.290743" style="stroke: #000000; stroke-width: 0.8"/>
      </g>
     </g>
     <g id="text_13">
      <!-- 0.8 -->
      <g transform="translate(121.096875 299.089961) scale(0.1 -0.1)">
       <defs>
        <path id="DejaVuSans-38" d="M 2034 2216 
Q 1584 2216 1326 1975 
Q 1069 1734 1069 1313 
Q 1069 891 1326 650 
Q 1584 409 2034 409 
Q 2484 409 2743 651 
Q 3003 894 3003 1313 
Q 3003 1734 2745 1975 
Q 2488 2216 2034 2216 
z
M 1403 2484 
Q 997 2584 770 2862 
Q 544 3141 544 3541 
Q 544 4100 942 4425 
Q 1341 4750 2034 4750 
Q 2731 4750 3128 4425 
Q 3525 4100 3525 3541 
Q 3525 3141 3298 2862 
Q 3072 2584 2669 2484 
Q 3125 2378 3379 2068 
Q 3634 1759 3634 1313 
Q 3634 634 3220 271 
Q 2806 -91 2034 -91 
Q 1263 -91 848 271 
Q 434 634 434 1313 
Q 434 1759 690 2068 
Q 947 2378 1403 2484 
z
M 1172 3481 
Q 1172 3119 1398 2916 
Q 1625 2713 2034 2713 
Q 2441 2713 2670 2916 
Q 2900 3119 2900 3481 
Q 2900 3844 2670 4047 
Q 2441 4250 2034 4250 
Q 1625 4250 1398 4047 
Q 1172 3844 1172 3481 
z
" transform="scale(0.015625)"/>
       </defs>
       <use xlink:href="#DejaVuSans-30"/>
       <use xlink:href="#DejaVuSans-2e" x="63.623047"/>
       <use xlink:href="#DejaVuSans-38" x="95.410156"/>
      </g>
     </g>
    </g>
    <g id="ytick_6">
     <g id="line2d_13">
      <g>
       <use xlink:href="#m16ca54db57" x="144" y="245.687251" style="stroke: #000000; stroke-width: 0.8"/>
      </g>
     </g>
     <g id="text_14">
      <!-- 1.0 -->
      <g transform="translate(121.096875 249.486469) scale(0.1 -0.1)">
       <use xlink:href="#DejaVuSans-31"/>
       <use xlink:href="#DejaVuSans-2e" x="63.623047"/>
       <use xlink:href="#DejaVuSans-30" x="95.410156"/>
      </g>
     </g>
    </g>
    <g id="ytick_7">
     <g id="line2d_14">
      <g>
       <use xlink:href="#m16ca54db57" x="144" y="196.083759" style="stroke: #000000; stroke-width: 0.8"/>
      </g>
     </g>
     <g id="text_15">
      <!-- 1.2 -->
      <g transform="translate(121.096875 199.882977) scale(0.1 -0.1)">
       <use xlink:href="#DejaVuSans-31"/>
       <use xlink:href="#DejaVuSans-2e" x="63.623047"/>
       <use xlink:href="#DejaVuSans-32" x="95.410156"/>
      </g>
     </g>
    </g>
    <g id="ytick_8">
     <g id="line2d_15">
      <g>
       <use xlink:href="#m16ca54db57" x="144" y="146.480267" style="stroke: #000000; stroke-width: 0.8"/>
      </g>
     </g>
     <g id="text_16">
      <!-- 1.4 -->
      <g transform="translate(121.096875 150.279485) scale(0.1 -0.1)">
       <use xlink:href="#DejaVuSans-31"/>
       <use xlink:href="#DejaVuSans-2e" x="63.623047"/>
       <use xlink:href="#DejaVuSans-34" x="95.410156"/>
      </g>
     </g>
    </g>
    <g id="ytick_9">
     <g id="line2d_16">
      <g>
       <use xlink:href="#m16ca54db57" x="144" y="96.876775" style="stroke: #000000; stroke-width: 0.8"/>
      </g>
     </g>
     <g id="text_17">
      <!-- 1.6 -->
      <g transform="translate(121.096875 100.675994) scale(0.1 -0.1)">
       <use xlink:href="#DejaVuSans-31"/>
       <use xlink:href="#DejaVuSans-2e" x="63.623047"/>
       <use xlink:href="#DejaVuSans-36" x="95.410156"/>
      </g>
     </g>
    </g>
    <g id="text_18">
     <!-- Histogram difference -->
     <g transform="translate(115.017187 343.580781) rotate(-90) scale(0.1 -0.1)">
      <defs>
       <path id="DejaVuSans-48" d="M 628 4666 
L 1259 4666 
L 1259 2753 
L 3553 2753 
L 3553 4666 
L 4184 4666 
L 4184 0 
L 3553 0 
L 3553 2222 
L 1259 2222 
L 1259 0 
L 628 0 
L 628 4666 
z
" transform="scale(0.015625)"/>
       <path id="DejaVuSans-69" d="M 603 3500 
L 1178 3500 
L 1178 0 
L 603 0 
L 603 3500 
z
M 603 4863 
L 1178 4863 
L 1178 4134 
L 603 4134 
L 603 4863 
z
" transform="scale(0.015625)"/>
       <path id="DejaVuSans-73" d="M 2834 3397 
L 2834 2853 
Q 2591 2978 2328 3040 
Q 2066 3103 1784 3103 
Q 1356 3103 1142 2972 
Q 928 2841 928 2578 
Q 928 2378 1081 2264 
Q 1234 2150 1697 2047 
L 1894 2003 
Q 2506 1872 2764 1633 
Q 3022 1394 3022 966 
Q 3022 478 2636 193 
Q 2250 -91 1575 -91 
Q 1294 -91 989 -36 
Q 684 19 347 128 
L 347 722 
Q 666 556 975 473 
Q 1284 391 1588 391 
Q 1994 391 2212 530 
Q 2431 669 2431 922 
Q 2431 1156 2273 1281 
Q 2116 1406 1581 1522 
L 1381 1569 
Q 847 1681 609 1914 
Q 372 2147 372 2553 
Q 372 3047 722 3315 
Q 1072 3584 1716 3584 
Q 2034 3584 2315 3537 
Q 2597 3491 2834 3397 
z
" transform="scale(0.015625)"/>
       <path id="DejaVuSans-74" d="M 1172 4494 
L 1172 3500 
L 2356 3500 
L 2356 3053 
L 1172 3053 
L 1172 1153 
Q 1172 725 1289 603 
Q 1406 481 1766 481 
L 2356 481 
L 2356 0 
L 1766 0 
Q 1100 0 847 248 
Q 594 497 594 1153 
L 594 3053 
L 172 3053 
L 172 3500 
L 594 3500 
L 594 4494 
L 1172 4494 
z
" transform="scale(0.015625)"/>
       <path id="DejaVuSans-6f" d="M 1959 3097 
Q 1497 3097 1228 2736 
Q 959 2375 959 1747 
Q 959 1119 1226 758 
Q 1494 397 1959 397 
Q 2419 397 2687 759 
Q 2956 1122 2956 1747 
Q 2956 2369 2687 2733 
Q 2419 3097 1959 3097 
z
M 1959 3584 
Q 2709 3584 3137 3096 
Q 3566 2609 3566 1747 
Q 3566 888 3137 398 
Q 2709 -91 1959 -91 
Q 1206 -91 779 398 
Q 353 888 353 1747 
Q 353 2609 779 3096 
Q 1206 3584 1959 3584 
z
" transform="scale(0.015625)"/>
       <path id="DejaVuSans-67" d="M 2906 1791 
Q 2906 2416 2648 2759 
Q 2391 3103 1925 3103 
Q 1463 3103 1205 2759 
Q 947 2416 947 1791 
Q 947 1169 1205 825 
Q 1463 481 1925 481 
Q 2391 481 2648 825 
Q 2906 1169 2906 1791 
z
M 3481 434 
Q 3481 -459 3084 -895 
Q 2688 -1331 1869 -1331 
Q 1566 -1331 1297 -1286 
Q 1028 -1241 775 -1147 
L 775 -588 
Q 1028 -725 1275 -790 
Q 1522 -856 1778 -856 
Q 2344 -856 2625 -561 
Q 2906 -266 2906 331 
L 2906 616 
Q 2728 306 2450 153 
Q 2172 0 1784 0 
Q 1141 0 747 490 
Q 353 981 353 1791 
Q 353 2603 747 3093 
Q 1141 3584 1784 3584 
Q 2172 3584 2450 3431 
Q 2728 3278 2906 2969 
L 2906 3500 
L 3481 3500 
L 3481 434 
z
" transform="scale(0.015625)"/>
       <path id="DejaVuSans-64" d="M 2906 2969 
L 2906 4863 
L 3481 4863 
L 3481 0 
L 2906 0 
L 2906 525 
Q 2725 213 2448 61 
Q 2172 -91 1784 -91 
Q 1150 -91 751 415 
Q 353 922 353 1747 
Q 353 2572 751 3078 
Q 1150 3584 1784 3584 
Q 2172 3584 2448 3432 
Q 2725 3281 2906 2969 
z
M 947 1747 
Q 947 1113 1208 752 
Q 1469 391 1925 391 
Q 2381 391 2643 752 
Q 2906 1113 2906 1747 
Q 2906 2381 2643 2742 
Q 2381 3103 1925 3103 
Q 1469 3103 1208 2742 
Q 947 2381 947 1747 
z
" transform="scale(0.015625)"/>
       <path id="DejaVuSans-66" d="M 2375 4863 
L 2375 4384 
L 1825 4384 
Q 1516 4384 1395 4259 
Q 1275 4134 1275 3809 
L 1275 3500 
L 2222 3500 
L 2222 3053 
L 1275 3053 
L 1275 0 
L 697 0 
L 697 3053 
L 147 3053 
L 147 3500 
L 697 3500 
L 697 3744 
Q 697 4328 969 4595 
Q 1241 4863 1831 4863 
L 2375 4863 
z
" transform="scale(0.015625)"/>
       <path id="DejaVuSans-63" d="M 3122 3366 
L 3122 2828 
Q 2878 2963 2633 3030 
Q 2388 3097 2138 3097 
Q 1578 3097 1268 2742 
Q 959 2388 959 1747 
Q 959 1106 1268 751 
Q 1578 397 2138 397 
Q 2388 397 2633 464 
Q 2878 531 3122 666 
L 3122 134 
Q 2881 22 2623 -34 
Q 2366 -91 2075 -91 
Q 1284 -91 818 406 
Q 353 903 353 1747 
Q 353 2603 823 3093 
Q 1294 3584 2113 3584 
Q 2378 3584 2631 3529 
Q 2884 3475 3122 3366 
z
" transform="scale(0.015625)"/>
      </defs>
      <use xlink:href="#DejaVuSans-48"/>
      <use xlink:href="#DejaVuSans-69" x="75.195312"/>
      <use xlink:href="#DejaVuSans-73" x="102.978516"/>
      <use xlink:href="#DejaVuSans-74" x="155.078125"/>
      <use xlink:href="#DejaVuSans-6f" x="194.287109"/>
      <use xlink:href="#DejaVuSans-67" x="255.46875"/>
      <use xlink:href="#DejaVuSans-72" x="318.945312"/>
      <use xlink:href="#DejaVuSans-61" x="360.058594"/>
      <use xlink:href="#DejaVuSans-6d" x="421.337891"/>
      <use xlink:href="#DejaVuSans-20" x="518.75"/>
      <use xlink:href="#DejaVuSans-64" x="550.537109"/>
      <use xlink:href="#DejaVuSans-69" x="614.013672"/>
      <use xlink:href="#DejaVuSans-66" x="641.796875"/>
      <use xlink:href="#DejaVuSans-66" x="677.001953"/>
      <use xlink:href="#DejaVuSans-65" x="712.207031"/>
      <use xlink:href="#DejaVuSans-72" x="773.730469"/>
      <use xlink:href="#DejaVuSans-65" x="812.59375"/>
      <use xlink:href="#DejaVuSans-6e" x="874.117188"/>
      <use xlink:href="#DejaVuSans-63" x="937.496094"/>
      <use xlink:href="#DejaVuSans-65" x="992.476562"/>
     </g>
    </g>
    <g id="text_19">
     <!-- 1e6 -->
     <g transform="translate(144 66.12) scale(0.1 -0.1)">
      <use xlink:href="#DejaVuSans-31"/>
      <use xlink:href="#DejaVuSans-65" x="63.623047"/>
      <use xlink:href="#DejaVuSans-36" x="125.146484"/>
     </g>
    </g>
   </g>
   <g id="line2d_17">
    <path d="M 184.581818 489.571747 
L 184.861019 488.315787 
L 185.698621 491.358465 
L 185.977822 490.767687 
L 186.257022 488.964104 
L 186.815424 490.992391 
L 187.094624 491.917992 
L 187.373825 491.45172 
L 187.653026 492.022656 
L 187.932226 491.678904 
L 188.211427 491.876326 
L 188.490628 491.31531 
L 188.769828 491.222551 
L 189.049029 491.562335 
L 189.32823 489.694764 
L 189.60743 490.431872 
L 189.886631 490.379788 
L 190.165832 490.478995 
L 190.445032 492.201724 
L 190.724233 491.373346 
L 191.003434 491.369378 
L 191.282634 491.073741 
L 191.561835 489.94923 
L 191.841036 490.317288 
L 192.120236 491.213127 
L 192.399437 490.784553 
L 192.678638 491.15013 
L 192.957838 491.172452 
L 193.237039 486.931849 
L 193.51624 486.537502 
L 193.79544 486.802384 
L 194.074641 487.256256 
L 194.353842 489.068768 
L 194.912243 490.695762 
L 195.191444 489.195753 
L 195.470645 490.927411 
L 195.749845 491.394676 
L 196.029046 487.683838 
L 196.308247 488.50676 
L 196.587447 490.942292 
L 196.866648 491.668983 
L 197.425049 490.883264 
L 197.70425 491.789519 
L 197.983451 491.146658 
L 198.262651 490.969574 
L 198.541852 491.815809 
L 199.100253 491.16898 
L 199.379454 491.812833 
L 199.658655 491.419477 
L 199.937855 491.291996 
L 200.217056 491.952715 
L 200.496257 491.440311 
L 200.775457 491.790015 
L 201.054658 491.636741 
L 201.333859 491.808369 
L 201.613059 483.868834 
L 202.171461 491.903111 
L 202.450661 492.011247 
L 202.729862 492.48 
L 203.009063 491.562831 
L 203.288263 492.164522 
L 203.567464 491.721563 
L 204.405066 491.977021 
L 204.684267 491.822754 
L 204.963467 491.957179 
L 205.242668 491.540014 
L 205.521869 491.760253 
L 205.80107 492.401626 
L 206.359471 491.467593 
L 206.638672 491.71313 
L 207.197073 491.291004 
L 207.476274 491.688328 
L 207.755474 491.416005 
L 208.034675 490.572746 
L 208.313876 491.998846 
L 209.151478 491.915016 
L 209.430678 491.307869 
L 209.709879 491.13773 
L 209.98908 491.156579 
L 210.26828 491.295469 
L 210.547481 488.399617 
L 210.826682 488.886227 
L 211.105882 491.363425 
L 211.385083 490.135739 
L 211.664284 491.633268 
L 211.943484 473.711031 
L 212.222685 490.883264 
L 212.501886 491.650134 
L 212.781086 491.877814 
L 213.060287 491.596066 
L 213.618688 492.215117 
L 214.17709 492.125831 
L 214.45629 491.663527 
L 214.735491 491.953211 
L 215.293892 491.079693 
L 215.852294 491.397156 
L 216.131495 487.476992 
L 216.410695 487.591576 
L 216.689896 491.625828 
L 216.969097 491.292988 
L 217.527498 491.107471 
L 217.806699 491.854996 
L 218.085899 491.757277 
L 218.3651 490.32076 
L 218.644301 490.793977 
L 218.923501 489.818773 
L 219.202702 491.104495 
L 219.761103 492.001822 
L 220.040304 490.96759 
L 220.319505 491.317294 
L 220.877906 491.040011 
L 221.157107 492.111942 
L 221.436307 491.010249 
L 221.715508 491.43287 
L 222.273909 490.620861 
L 222.55311 491.232968 
L 222.832311 491.54795 
L 223.390712 490.3783 
L 223.669913 491.017193 
L 223.949113 491.243385 
L 224.228314 490.479987 
L 224.507515 491.010249 
L 224.786715 490.718084 
L 225.065916 490.904593 
L 225.345117 490.410542 
L 225.624317 490.454193 
L 225.903518 491.175428 
L 226.182719 491.532573 
L 226.46192 491.424438 
L 226.74112 490.612925 
L 227.020321 491.836643 
L 227.299522 491.358961 
L 227.578722 490.525622 
L 227.857923 491.215607 
L 228.137124 491.009256 
L 228.416324 490.194767 
L 228.695525 491.192293 
L 228.974726 491.264714 
L 229.253926 489.64516 
L 229.533127 491.303901 
L 229.812328 491.745868 
L 230.091528 490.790505 
L 230.370729 490.882272 
L 230.64993 491.322751 
L 230.92913 490.494868 
L 231.208331 490.989415 
L 231.487532 490.66104 
L 231.766732 490.03802 
L 232.045933 491.105983 
L 232.325134 490.71362 
L 232.604334 488.826703 
L 232.883535 490.986935 
L 233.162736 491.162035 
L 233.441936 489.112419 
L 233.721137 491.376818 
L 234.000338 491.374834 
L 234.279538 489.78157 
L 234.83794 491.240905 
L 235.11714 489.60399 
L 235.396341 490.681377 
L 235.675542 490.509253 
L 236.233943 489.978992 
L 236.513144 490.862926 
L 236.792344 490.251315 
L 237.071545 490.34457 
L 237.350746 490.861934 
L 237.629947 485.982439 
L 237.909147 488.01519 
L 238.188348 488.782556 
L 238.746749 490.65856 
L 239.02595 491.39914 
L 239.305151 491.488922 
L 239.584351 487.458639 
L 239.863552 489.542481 
L 240.142753 490.726517 
L 240.701154 491.453704 
L 240.980355 488.264695 
L 241.259555 490.196751 
L 241.538756 490.28703 
L 241.817957 491.813825 
L 242.097157 491.347056 
L 242.376358 490.269172 
L 242.655559 491.922953 
L 242.934759 491.228504 
L 243.21396 487.30834 
L 243.493161 488.683349 
L 243.772361 487.76866 
L 244.051562 489.83663 
L 244.330763 141.75355 
L 244.609963 473.765099 
L 244.889164 480.884688 
L 245.168365 479.513647 
L 245.447565 483.745321 
L 245.726766 485.558329 
L 246.005967 483.116349 
L 246.285167 487.634235 
L 246.564368 483.146111 
L 246.843569 482.861883 
L 247.122769 486.409029 
L 247.681171 488.736424 
L 247.960372 489.115891 
L 248.518773 486.8004 
L 248.797974 484.559314 
L 249.077174 487.689295 
L 249.356375 485.612893 
L 249.635576 488.175905 
L 249.914776 489.32125 
L 250.473178 480.065238 
L 250.752378 481.819218 
L 251.031579 482.47448 
L 251.31078 482.805335 
L 251.58998 484.623303 
L 251.869181 484.30336 
L 252.148382 485.560809 
L 252.706783 477.150041 
L 253.544385 482.290947 
L 253.823586 483.568237 
L 254.102786 487.240383 
L 254.381987 486.720043 
L 254.661188 481.735884 
L 254.940388 484.083617 
L 255.219589 480.834588 
L 255.49879 486.2875 
L 255.77799 485.597019 
L 256.336392 480.224465 
L 256.615592 479.557794 
L 256.894793 485.380748 
L 257.173994 485.598508 
L 257.453194 484.573699 
L 257.732395 485.387693 
L 258.011596 481.303837 
L 258.290797 482.888669 
L 258.569997 486.20615 
L 258.849198 484.196217 
L 259.128399 485.970534 
L 259.407599 484.340563 
L 259.6868 487.095045 
L 259.966001 482.542932 
L 260.245201 487.884236 
L 260.524402 486.379267 
L 260.803603 489.113907 
L 261.082803 487.410027 
L 261.362004 486.710618 
L 261.641205 480.805322 
L 261.920405 484.325682 
L 262.199606 482.258208 
L 262.478807 486.104463 
L 262.758007 484.158022 
L 263.316409 485.362891 
L 263.595609 484.662986 
L 264.433211 486.923913 
L 264.712412 485.003266 
L 264.991613 486.289484 
L 265.270813 486.312302 
L 265.550014 486.634725 
L 265.829215 484.831638 
L 266.108415 485.976486 
L 266.387616 485.821227 
L 266.666817 487.819256 
L 266.946017 487.307348 
L 267.225218 170.550361 
L 267.504419 473.974425 
L 267.783619 472.604377 
L 268.06282 469.355348 
L 268.342021 478.587054 
L 268.621222 477.878716 
L 268.900422 481.299373 
L 269.179623 473.769067 
L 270.017225 411.224024 
L 270.296426 429.717694 
L 270.575626 373.797693 
L 270.854827 432.39281 
L 271.413228 483.796413 
L 271.692429 491.866901 
L 271.97163 490.232466 
L 272.25083 486.443255 
L 272.809232 491.274139 
L 273.088432 491.693289 
L 273.367633 489.666986 
L 273.646834 489.051407 
L 273.926034 490.563817 
L 274.205235 479.208586 
L 274.484436 457.804679 
L 274.763636 376.361202 
L 275.042837 434.193913 
L 275.322038 437.683022 
L 275.601238 433.500952 
L 275.880439 438.491063 
L 276.15964 451.362673 
L 276.43884 491.625332 
L 276.718041 490.726021 
L 276.997242 490.790505 
L 277.276442 491.34656 
L 277.555643 491.024634 
L 277.834844 491.857972 
L 278.114044 491.042491 
L 278.672446 491.930889 
L 278.951646 490.993879 
L 279.230847 491.145666 
L 279.510048 491.916504 
L 279.789249 491.48297 
L 280.34765 491.430886 
L 280.626851 491.85202 
L 280.906051 491.717594 
L 281.185252 155.53836 
L 281.464453 483.182321 
L 281.743653 485.590571 
L 282.302055 480.768616 
L 282.581255 480.889648 
L 282.860456 480.697187 
L 283.139657 479.770097 
L 283.418857 477.431789 
L 283.698058 479.916428 
L 283.977259 479.665434 
L 284.256459 483.220516 
L 284.53566 478.533978 
L 284.814861 477.991316 
L 285.094061 479.950158 
L 285.373262 476.397556 
L 285.652463 478.134174 
L 285.931663 478.190226 
L 286.210864 482.103942 
L 286.490065 475.336041 
L 286.769265 476.912936 
L 287.048466 480.983399 
L 287.327667 475.982375 
L 287.606867 478.231397 
L 287.886068 477.167898 
L 288.165269 478.946679 
L 288.444469 474.111331 
L 288.72367 479.97248 
L 289.002871 480.989847 
L 289.282071 477.529011 
L 289.561272 476.056284 
L 289.840473 478.61384 
L 290.119674 474.680779 
L 290.398874 482.426364 
L 290.678075 474.818677 
L 290.957276 482.205629 
L 291.236476 474.550818 
L 291.794878 477.509666 
L 292.074078 476.741804 
L 292.353279 478.211556 
L 292.63248 460.166797 
L 292.91168 467.884605 
L 293.190881 456.961916 
L 293.470082 470.078071 
L 293.749282 469.538881 
L 294.028483 458.50508 
L 294.307684 468.572109 
L 294.586884 462.470383 
L 294.866085 474.024029 
L 295.145286 470.412399 
L 295.424486 473.428291 
L 295.703687 474.541393 
L 295.982888 478.462549 
L 296.262088 478.112349 
L 296.541289 479.434778 
L 296.82049 483.145119 
L 297.09969 483.873794 
L 297.378891 480.201152 
L 297.937292 488.08265 
L 298.216493 486.288988 
L 298.495694 178.178882 
L 298.774894 487.086612 
L 299.612496 491.538526 
L 300.170898 489.27115 
L 300.450099 490.262228 
L 300.729299 490.814315 
L 301.0085 489.374325 
L 301.287701 490.911538 
L 301.566901 491.014713 
L 301.846102 490.445265 
L 302.125303 490.806378 
L 302.404503 490.68485 
L 302.683704 490.057365 
L 302.962905 490.474531 
L 303.242105 490.262724 
L 303.521306 485.325688 
L 303.800507 486.398116 
L 304.079707 491.561839 
L 304.358908 490.124826 
L 304.638109 491.311838 
L 304.917309 491.468585 
L 305.19651 490.710147 
L 305.754911 490.083655 
L 306.034112 491.65559 
L 306.313313 490.198239 
L 306.592513 490.517686 
L 307.150915 489.761729 
L 307.430115 490.992887 
L 307.988517 488.98345 
L 308.267717 488.038999 
L 308.546918 491.481978 
L 308.826119 490.087624 
L 309.105319 487.384233 
L 309.38452 489.162022 
L 309.663721 488.908053 
L 309.942921 489.049919 
L 310.222122 487.641179 
L 310.501323 488.582158 
L 310.780524 491.030586 
L 311.059724 489.570259 
L 311.338925 489.452699 
L 311.618126 484.330146 
L 311.897326 485.115866 
L 312.176527 488.950712 
L 312.455728 489.765201 
L 312.734928 488.913509 
L 313.014129 489.741391 
L 313.29333 489.678395 
L 313.57253 489.002299 
L 313.851731 489.440794 
L 314.130932 490.217585 
L 314.410132 490.088616 
L 315.247734 490.829692 
L 315.526935 490.544968 
L 315.806136 490.997848 
L 316.085336 489.392679 
L 316.364537 490.456178 
L 316.643738 491.002312 
L 316.922938 490.648639 
L 317.202139 490.881775 
L 317.48134 490.567785 
L 317.76054 489.684843 
L 318.039741 489.584644 
L 318.318942 490.439312 
L 318.598142 489.843574 
L 318.877343 487.748819 
L 319.156544 487.815784 
L 319.435744 487.498817 
L 319.994146 489.88921 
L 320.273346 489.107459 
L 320.831748 491.102511 
L 321.110948 490.963125 
L 321.390149 490.564809 
L 321.66935 491.540014 
L 321.948551 490.237426 
L 322.227751 487.529572 
L 322.506952 488.484935 
L 322.786153 490.936835 
L 323.065353 491.748845 
L 323.623755 487.727489 
L 323.902955 488.01271 
L 324.461357 491.449735 
L 325.019758 490.342586 
L 325.298959 491.296957 
L 325.578159 490.517686 
L 325.85736 487.695247 
L 326.136561 488.881267 
L 326.415761 489.073728 
L 326.694962 488.384736 
L 326.974163 491.544974 
L 327.532564 491.945274 
L 327.811765 491.133761 
L 328.090965 492.34111 
L 328.370166 492.408571 
L 328.649367 491.854004 
L 328.928567 171.813266 
L 329.207768 469.229851 
L 329.486969 472.869756 
L 329.766169 469.348404 
L 330.04537 467.413371 
L 330.324571 468.030935 
L 330.603771 456.366178 
L 330.882972 452.394922 
L 331.162173 460.676225 
L 331.441373 446.864629 
L 331.720574 448.90482 
L 331.999775 473.615296 
L 332.278976 466.924281 
L 332.558176 471.615283 
L 332.837377 473.606367 
L 333.395778 483.044424 
L 333.674979 479.403031 
L 333.95418 474.131172 
L 334.23338 474.987329 
L 334.512581 473.438708 
L 334.791782 475.933763 
L 335.070982 474.845959 
L 335.629384 467.534404 
L 335.908584 470.491764 
L 336.187785 471.760125 
L 336.466986 469.137589 
L 336.746186 472.739298 
L 337.304588 466.955035 
L 337.583788 474.083553 
L 337.862989 470.34593 
L 338.700591 416.423462 
L 338.979792 433.554524 
L 339.258992 400.811259 
L 339.538193 453.972809 
L 340.096594 484.767649 
L 340.375795 491.481482 
L 340.654996 490.485444 
L 340.934196 488.517177 
L 341.213397 490.88376 
L 341.492598 491.059852 
L 341.771798 492.264721 
L 342.3302 488.250806 
L 342.609401 490.09804 
L 342.888601 479.760177 
L 343.167802 457.349815 
L 343.447003 379.993665 
L 343.726203 434.152742 
L 344.005404 434.287167 
L 344.284605 431.764334 
L 344.563805 438.504456 
L 344.843006 451.793232 
L 345.122207 490.745366 
L 345.401407 491.159555 
L 345.680608 490.568281 
L 345.959809 490.508757 
L 346.239009 491.110448 
L 346.51821 490.227505 
L 347.076611 491.292988 
L 347.355812 490.614909 
L 347.635013 489.483949 
L 347.914213 491.299437 
L 348.193414 491.338128 
L 348.472615 490.889712 
L 348.751815 489.610438 
L 349.031016 491.31779 
L 349.310217 491.049931 
L 349.589417 489.540993 
L 349.868618 491.424934 
L 350.147819 487.855466 
L 350.427019 491.407573 
L 350.70622 485.421919 
L 350.985421 489.308849 
L 351.264621 487.971539 
L 351.543822 481.855924 
L 351.823023 489.570259 
L 352.102223 477.261153 
L 352.381424 487.67243 
L 352.660625 478.574157 
L 352.939825 484.301872 
L 353.219026 487.0881 
L 353.498227 486.274107 
L 353.777428 486.537006 
L 354.056628 487.390186 
L 354.61503 485.360411 
L 354.89423 487.652092 
L 355.173431 488.345053 
L 355.452632 486.653574 
L 355.731832 485.927379 
L 356.011033 487.990884 
L 356.290234 489.214602 
L 356.569434 488.950712 
L 356.848635 489.013708 
L 357.127836 488.109932 
L 357.407036 489.261725 
L 357.686237 488.347533 
L 357.965438 486.354465 
L 358.244638 486.03105 
L 358.523839 489.222539 
L 358.80304 488.374319 
L 359.08224 489.720062 
L 359.361441 489.402103 
L 359.640642 486.762702 
L 359.919842 487.781557 
L 360.199043 489.810836 
L 360.478244 489.35994 
L 360.757444 486.735916 
L 361.036645 486.444743 
L 361.315846 487.167962 
L 361.595046 488.959144 
L 361.874247 489.148629 
L 362.153448 489.955182 
L 362.432648 489.0147 
L 362.711849 491.409061 
L 362.99105 490.28951 
L 363.27025 490.978006 
L 363.549451 490.365403 
L 363.828652 490.526614 
L 364.107853 490.894672 
L 364.387053 491.823746 
L 364.666254 491.184853 
L 364.945455 490.934851 
L 365.224655 490.49338 
L 365.503856 489.315793 
L 365.783057 489.378294 
L 366.341458 485.843053 
L 366.620659 486.544446 
L 366.899859 486.341568 
L 367.17906 485.752278 
L 367.458261 484.709613 
L 367.737461 485.774104 
L 368.016662 485.514678 
L 368.295863 488.479478 
L 368.575063 476.74726 
L 368.854264 487.349511 
L 369.133465 482.669421 
L 369.412665 487.563302 
L 369.971067 486.261706 
L 370.250267 487.881756 
L 370.808669 484.199689 
L 371.087869 486.331647 
L 371.36707 490.196751 
L 371.646271 482.928352 
L 371.925471 487.867371 
L 372.483873 485.816763 
L 372.763073 486.804368 
L 373.042274 486.19871 
L 373.321475 488.295449 
L 373.600675 486.642661 
L 373.879876 488.84456 
L 374.159077 487.93384 
L 374.438278 489.881273 
L 374.717478 488.825711 
L 374.996679 488.704678 
L 375.27588 490.74239 
L 375.55508 488.973529 
L 375.834281 490.451217 
L 376.113482 489.884745 
L 376.392682 489.654089 
L 376.671883 486.549903 
L 376.951084 486.560319 
L 377.230284 485.864878 
L 377.509485 486.51766 
L 377.788686 491.061836 
L 378.067886 488.898132 
L 378.347087 489.140197 
L 378.626288 490.433856 
L 378.905488 489.594565 
L 379.184689 489.705677 
L 379.46389 490.647647 
L 379.74309 490.910546 
L 380.301492 488.457157 
L 380.580692 488.44922 
L 380.859893 490.800922 
L 381.139094 491.158563 
L 381.418294 489.104978 
L 381.697495 490.475523 
L 381.976696 490.728501 
L 382.255896 489.864904 
L 382.535097 489.60895 
L 382.814298 490.183358 
L 383.093498 488.866386 
L 383.372699 490.317288 
L 383.6519 490.427904 
L 383.9311 489.159542 
L 384.210301 490.214609 
L 384.489502 486.698713 
L 385.047903 489.530576 
L 385.327104 490.206672 
L 385.606305 489.55885 
L 385.885505 488.235429 
L 386.164706 490.584155 
L 386.443907 490.027107 
L 386.723107 490.282565 
L 387.002308 491.272155 
L 387.281509 490.38078 
L 387.560709 490.077703 
L 387.83991 491.572752 
L 388.119111 489.922444 
L 388.398311 489.719566 
L 388.956713 490.676913 
L 389.515114 489.103986 
L 389.794315 489.490398 
L 390.073515 490.298438 
L 390.352716 490.351514 
L 390.631917 489.646649 
L 390.911117 488.4517 
L 391.190318 490.580186 
L 391.469519 489.897146 
L 391.748719 491.345568 
L 392.02792 490.419471 
L 392.307121 490.447249 
L 392.586321 490.636734 
L 393.144723 490.602012 
L 393.423923 490.707171 
L 393.703124 489.981472 
L 393.982325 489.788515 
L 394.261525 488.595551 
L 394.540726 488.104476 
L 395.099127 490.092088 
L 395.378328 490.397645 
L 395.657529 489.267182 
L 395.93673 490.48594 
L 396.21593 490.034052 
L 396.495131 489.361924 
L 397.053532 490.92245 
L 397.332733 489.891194 
L 397.611934 489.687819 
L 397.891134 491.198742 
L 398.170335 489.539009 
L 398.449536 490.215601 
L 398.728736 490.571258 
L 399.007937 489.98544 
L 399.287138 490.276117 
L 399.566338 489.191288 
L 399.845539 489.218074 
L 400.12474 484.409512 
L 400.40394 488.014198 
L 400.683141 488.491383 
L 401.241542 486.771134 
L 401.520743 485.394637 
L 401.799944 487.449214 
L 402.079144 490.812827 
L 402.358345 488.414002 
L 402.916746 491.08763 
L 403.195947 489.742383 
L 403.475148 485.229458 
L 403.754348 483.822207 
L 404.033549 490.934355 
L 404.31275 491.138722 
L 404.59195 489.617382 
L 404.871151 491.381283 
L 405.429552 490.746358 
L 405.708753 490.171453 
L 405.987954 491.069277 
L 406.267155 489.803396 
L 406.546355 491.121856 
L 406.825556 491.00628 
L 407.104757 490.622845 
L 407.383957 491.14021 
L 407.663158 488.128286 
L 408.221559 489.597541 
L 408.50076 151.996175 
L 408.779961 421.778159 
L 409.059161 432.781205 
L 409.338362 426.551007 
L 409.617563 449.696492 
L 409.896763 457.648924 
L 410.175964 441.211319 
L 410.455165 439.601686 
L 410.734365 452.101269 
L 411.013566 441.004968 
L 411.292767 450.335385 
L 411.571967 438.943943 
L 412.130369 459.7536 
L 412.409569 440.908242 
L 412.68877 430.110553 
L 412.967971 444.004988 
L 413.526372 418.95572 
L 413.805573 430.502917 
L 414.084773 424.341171 
L 414.363974 440.889888 
L 414.643175 418.711175 
L 414.922375 436.065453 
L 415.201576 446.192005 
L 415.480777 446.131489 
L 415.759977 444.297648 
L 416.039178 439.172119 
L 416.318379 439.341763 
L 416.59758 443.934055 
L 417.155981 423.278168 
L 417.435182 415.255796 
L 417.714382 416.658086 
L 417.993583 413.544475 
L 418.272784 434.901755 
L 418.551984 438.183026 
L 418.831185 454.085905 
L 419.110386 422.212685 
L 419.668787 443.70439 
L 419.947988 427.500418 
L 420.506389 454.4118 
L 420.78559 454.763489 
L 421.06479 452.344327 
L 421.623192 436.19343 
L 421.902392 458.674228 
L 422.181593 463.821087 
L 422.460794 434.367029 
L 422.739994 447.470287 
L 423.019195 444.791203 
L 423.577596 461.139026 
L 423.856797 446.419189 
L 424.135998 460.834956 
L 424.415198 447.114134 
L 424.694399 460.035844 
L 424.9736 460.793289 
L 425.2528 453.878067 
L 425.532001 459.448539 
L 425.811202 462.032881 
L 426.090402 460.518486 
L 426.369603 464.932205 
L 426.928005 459.914315 
L 427.207205 469.019532 
L 427.486406 466.020009 
L 427.765607 471.676295 
L 428.044807 460.714916 
L 428.324008 464.256605 
L 428.882409 480.246291 
L 429.16161 478.040423 
L 429.440811 474.492782 
L 429.720011 474.572643 
L 429.999212 475.823147 
L 430.278413 469.209018 
L 430.557613 473.888115 
L 430.836814 471.294349 
L 431.395215 475.181278 
L 431.674416 469.513583 
L 432.232817 478.13219 
L 432.512018 476.428806 
L 432.791219 478.575645 
L 433.070419 477.492305 
L 433.34962 477.558278 
L 433.628821 470.25962 
L 434.187222 479.891626 
L 434.466423 473.106364 
L 434.745623 472.895549 
L 435.024824 465.311671 
L 435.304025 473.537419 
L 435.583225 474.644072 
L 435.862426 470.201088 
L 436.141627 467.582519 
L 436.420827 469.364277 
L 436.700028 475.519078 
L 436.979229 465.553736 
L 437.258429 470.991271 
L 437.53763 462.941617 
L 437.816831 474.402999 
L 438.096032 474.732367 
L 438.375232 469.334019 
L 438.654433 469.635608 
L 438.933634 473.574125 
L 439.212834 468.784412 
L 439.492035 478.719991 
L 439.771236 468.321115 
L 440.050436 469.834518 
L 440.329637 472.215485 
L 440.608838 457.815096 
L 440.888038 473.340989 
L 441.167239 469.887098 
L 441.44644 480.40155 
L 441.72564 472.725905 
L 442.004841 480.117818 
L 442.284042 478.415922 
L 442.563242 473.497736 
L 442.842443 476.895079 
L 443.121644 453.932134 
L 443.400844 455.46389 
L 443.680045 434.091234 
L 443.959246 423.532138 
L 444.238446 426.138802 
L 444.517647 360.043141 
L 444.796848 432.917119 
L 445.355249 484.368837 
L 445.63445 492.013727 
L 445.91365 491.563327 
L 446.192851 488.523625 
L 446.472052 490.087624 
L 447.030453 491.952219 
L 447.588854 488.104972 
L 447.868055 490.712628 
L 448.147256 479.357396 
L 448.426457 458.075514 
L 448.705657 382.149433 
L 448.984858 435.785193 
L 449.264059 435.277749 
L 449.543259 430.225137 
L 449.82246 438.499 
L 450.101661 451.491147 
L 450.380861 489.942781 
L 450.660062 490.619869 
L 450.939263 489.768673 
L 451.218463 490.073735 
L 451.497664 491.385251 
L 451.776865 491.357969 
L 452.056065 489.366389 
L 452.335266 490.657072 
L 452.614467 491.133761 
L 452.893667 488.496344 
L 453.172868 490.789017 
L 453.452069 488.664995 
L 453.731269 490.664016 
L 454.01047 488.418466 
L 454.289671 490.318776 
L 454.568871 490.597051 
L 454.848072 488.58811 
L 455.127273 490.189807 
L 455.406473 490.281077 
L 455.685674 490.650127 
L 455.964875 489.029085 
L 456.244075 491.305885 
L 456.802477 488.937319 
L 457.081677 490.985447 
L 457.360878 489.842086 
L 457.640079 489.179384 
L 457.919279 490.882768 
L 458.19848 489.398135 
L 458.756882 491.808369 
L 459.036082 491.100031 
L 459.315283 488.526602 
L 459.594484 488.861921 
L 459.873684 488.910037 
L 460.152885 489.843574 
L 460.432086 490.29943 
L 460.711286 491.109952 
L 460.990487 491.08515 
L 461.269688 490.903105 
L 461.548888 491.42791 
L 461.828089 490.900129 
L 462.10729 490.612429 
L 462.38649 492.054402 
L 462.665691 491.094574 
L 462.944892 490.620365 
L 463.224092 491.51174 
L 463.503293 490.706675 
L 463.782494 490.502805 
L 464.061694 491.886742 
L 464.620096 490.246851 
L 464.899296 491.392195 
L 465.178497 491.251818 
L 465.457698 490.623837 
L 465.736898 491.547454 
L 466.016099 489.819765 
L 466.2953 490.678897 
L 466.5745 490.456178 
L 466.853701 490.664016 
L 467.132902 490.590107 
L 467.412102 491.516204 
L 467.691303 490.533559 
L 467.970504 488.657555 
L 468.249704 489.21361 
L 468.528905 491.110944 
L 468.808106 491.001816 
L 469.087307 491.624836 
L 469.366507 490.222545 
L 469.645708 491.046955 
L 469.924909 490.824731 
L 470.204109 491.40658 
L 470.48331 487.503778 
L 470.762511 490.074231 
L 471.320912 491.978509 
L 471.600113 490.612925 
L 471.879313 491.065308 
L 472.716915 489.393671 
L 472.996116 491.22404 
L 473.275317 490.051413 
L 473.554517 489.61639 
L 473.833718 491.029594 
L 474.112919 490.264708 
L 474.67132 490.671457 
L 474.950521 490.463618 
L 475.229721 487.647132 
L 475.508922 489.533553 
L 475.788123 489.849031 
L 476.067323 490.953205 
L 476.346524 490.019667 
L 476.625725 489.936333 
L 476.904925 491.340112 
L 477.184126 490.406078 
L 477.463327 489.991889 
L 477.742527 490.866398 
L 478.021728 490.970566 
L 478.300929 486.870837 
L 478.580129 488.538507 
L 478.85933 487.422924 
L 479.696932 490.460642 
L 479.976133 489.58018 
L 480.255334 487.736914 
L 480.534534 488.476998 
L 480.813735 488.627793 
L 481.092936 488.98593 
L 481.372136 488.998331 
L 481.651337 488.700214 
L 481.930538 488.824223 
L 482.209738 489.35746 
L 482.488939 486.815281 
L 482.76814 486.818257 
L 483.04734 487.754771 
L 483.326541 487.917967 
L 483.605742 489.437322 
L 484.164143 490.961637 
L 484.443344 486.382243 
L 484.722544 487.414987 
L 485.001745 488.880771 
L 485.280946 488.915493 
L 485.560146 489.872344 
L 485.839347 490.08812 
L 486.118548 491.162035 
L 486.397748 486.559327 
L 486.95615 488.702694 
L 487.23535 488.982458 
L 487.514551 486.560815 
L 487.793752 486.763198 
L 488.072952 490.334649 
L 488.352153 490.852013 
L 488.631354 490.778104 
L 488.910554 487.884733 
L 489.189755 488.414002 
L 489.468956 486.868853 
L 489.748156 488.396145 
L 490.027357 490.636238 
L 490.306558 491.424438 
L 490.585759 490.917986 
L 490.864959 488.119853 
L 491.14416 488.287513 
L 491.423361 487.708144 
L 491.702561 489.29992 
L 491.981762 468.912885 
L 492.260963 487.281554 
L 492.540163 489.852999 
L 492.819364 487.550901 
L 493.098565 488.922934 
L 493.377765 490.858462 
L 493.656966 491.063324 
L 493.936167 490.77364 
L 494.215367 490.003794 
L 494.494568 490.425919 
L 494.773769 490.60598 
L 495.052969 490.57721 
L 495.33217 488.253286 
L 495.611371 489.98296 
L 495.890571 490.069766 
L 496.169772 491.044971 
L 496.448973 490.224529 
L 496.728173 490.85499 
L 497.007374 492.020672 
L 497.286575 490.880287 
L 497.565775 230.801739 
L 497.844976 485.420431 
L 498.124177 488.068761 
L 498.403377 484.509215 
L 498.682578 484.299888 
L 498.961779 484.688283 
L 499.240979 488.637217 
L 499.52018 488.286025 
L 499.799381 487.000302 
L 500.078581 484.155542 
L 500.916184 487.596536 
L 501.195384 488.014198 
L 501.474585 484.16199 
L 501.753786 484.15951 
L 502.032986 483.880243 
L 502.312187 481.494811 
L 502.591388 483.678356 
L 502.870588 486.839091 
L 503.42899 489.322738 
L 503.70819 488.779083 
L 503.987391 484.41596 
L 504.266592 486.88919 
L 504.545792 486.259226 
L 504.824993 488.162512 
L 505.104194 489.205673 
L 505.383394 485.220033 
L 505.662595 487.345047 
L 505.941796 482.555333 
L 506.220996 487.245343 
L 506.500197 482.368824 
L 506.779398 488.579181 
L 507.058598 486.573216 
L 507.337799 487.230462 
L 507.617 487.401594 
L 507.8962 487.073219 
L 508.175401 484.501774 
L 508.454602 486.09355 
L 508.733802 483.768635 
L 509.013003 490.893184 
L 509.850605 480.619309 
L 510.409006 484.304848 
L 511.246608 476.326623 
L 511.525809 481.02457 
L 511.80501 478.128718 
L 512.084211 481.622292 
L 512.363411 480.177342 
L 512.642612 480.798874 
L 512.921813 481.146098 
L 513.201013 484.72995 
L 513.480214 484.037982 
L 513.759415 480.936771 
L 514.038615 89.28 
L 514.317816 483.245318 
L 514.876217 474.005179 
L 515.155418 479.2944 
L 515.434619 473.072138 
L 515.713819 473.241782 
L 515.99302 475.207568 
L 516.272221 471.833539 
L 516.551421 467.076068 
L 516.830622 468.331532 
L 517.109823 472.995252 
L 517.389023 461.751629 
L 517.668224 462.34191 
L 517.947425 465.063654 
L 518.226625 464.826053 
L 518.505826 468.374687 
L 518.785027 473.420354 
L 519.064227 473.577101 
L 519.343428 469.573107 
L 519.622629 471.844947 
L 520.18103 468.042344 
L 520.460231 467.310692 
L 520.739431 454.720334 
L 521.018632 474.735343 
L 521.297833 474.864808 
L 521.577033 471.062204 
L 521.856234 472.033937 
L 522.135435 467.877164 
L 522.693836 429.703309 
L 522.973037 437.498994 
L 523.252238 371.154323 
L 523.531438 434.4707 
L 524.08984 484.608918 
L 524.36904 491.778111 
L 524.648241 490.65608 
L 524.927442 488.059337 
L 525.206642 489.782066 
L 525.765044 491.530093 
L 526.323445 487.501298 
L 526.602646 490.194271 
L 526.881846 479.44073 
L 527.161047 457.619162 
L 527.440248 375.56705 
L 527.719448 433.524266 
L 527.998649 433.546091 
L 528.27785 431.222664 
L 528.55705 439.240572 
L 528.836251 452.234207 
L 529.115452 489.825221 
L 529.394652 490.31828 
L 529.673853 490.288022 
L 529.953054 490.091592 
L 530.232254 489.155574 
L 530.511455 490.993383 
L 531.069856 487.463599 
L 531.349057 487.872332 
L 531.628258 489.843078 
L 531.907458 490.470563 
L 532.186659 489.784546 
L 533.024261 490.863422 
L 533.303462 487.872332 
L 533.582663 489.261229 
L 534.420265 491.211639 
L 534.699465 489.460635 
L 535.537067 489.629783 
L 535.816268 491.53803 
L 536.095469 491.539022 
L 536.65387 489.559842 
L 536.933071 487.78751 
L 537.212271 490.621357 
L 537.491472 491.216103 
L 537.770673 490.248835 
L 538.049873 490.408558 
L 538.329074 489.532561 
L 538.887475 489.87284 
L 539.166676 490.138715 
L 539.445877 491.060844 
L 539.725077 489.779586 
L 540.004278 489.996849 
L 540.283479 490.908561 
L 540.562679 491.048939 
L 540.84188 490.853998 
L 541.121081 491.104991 
L 541.400281 488.158544 
L 541.679482 490.626318 
L 541.958683 490.552408 
L 542.237883 489.326706 
L 542.517084 490.283557 
L 542.796285 488.767675 
L 543.075486 489.097538 
L 543.354686 491.138226 
L 543.913088 488.505272 
L 544.192288 489.081169 
L 544.471489 475.955093 
L 544.75069 487.221534 
L 545.02989 489.681371 
L 545.309091 488.317275 
L 545.588292 488.592078 
L 545.867492 487.530068 
L 546.425894 490.279589 
L 546.705094 489.531072 
L 547.263496 486.8505 
L 547.542696 488.938807 
L 547.821897 487.416972 
L 548.101098 488.632257 
L 548.659499 489.365397 
L 548.9387 489.219066 
L 549.2179 489.354484 
L 549.497101 488.356462 
L 549.776302 486.420933 
L 550.055502 487.288002 
L 550.334703 482.938272 
L 550.613904 488.64565 
L 550.893104 484.69374 
L 551.172305 487.755267 
L 551.730706 487.661021 
L 552.009907 488.809838 
L 552.289108 485.43184 
L 552.568308 486.461608 
L 552.847509 486.972524 
L 553.12671 485.617357 
L 553.40591 488.204675 
L 553.685111 487.570246 
L 554.243513 488.728488 
L 554.522713 489.843078 
L 554.801914 487.394154 
L 555.081115 488.757258 
L 555.639516 486.618355 
L 555.918717 488.01271 
L 556.197917 487.145144 
L 556.756319 489.21361 
L 557.035519 488.319755 
L 557.31472 487.984932 
L 557.593921 485.99732 
L 557.873121 488.845056 
L 558.152322 487.327189 
L 558.431523 489.458155 
L 558.710723 485.713092 
L 558.989924 488.063801 
L 559.827526 490.32324 
L 560.106727 489.752304 
L 560.385927 490.597547 
L 560.665128 489.744863 
L 560.944329 485.349002 
L 561.223529 488.65061 
L 561.50273 488.426899 
L 561.781931 491.065308 
L 562.061131 487.418956 
L 562.340332 490.395165 
L 562.619533 489.422441 
L 562.898733 489.863912 
L 563.177934 482.886189 
L 563.457135 487.186811 
L 564.015536 488.291481 
L 564.294737 489.294464 
L 564.573938 486.042459 
L 564.853138 487.835129 
L 565.132339 488.73692 
L 565.41154 490.360443 
L 565.69074 489.507759 
L 565.969941 489.965103 
L 566.249142 488.048424 
L 566.528342 489.423929 
L 566.807543 480.167917 
L 567.086744 484.230939 
L 567.365944 484.603958 
L 567.645145 482.498289 
L 568.203546 485.118346 
L 568.482747 484.320226 
L 568.761948 484.12578 
L 569.041148 485.051381 
L 569.320349 485.262692 
L 569.59955 486.430358 
L 570.157951 483.972505 
L 570.437152 484.404055 
L 570.716352 484.511199 
L 570.995553 484.247804 
L 571.274754 485.977478 
L 571.553954 486.589585 
L 571.833155 483.603455 
L 572.112356 485.101977 
L 572.391556 484.844534 
L 572.670757 481.910984 
L 572.949958 482.171402 
L 573.229158 483.571213 
L 573.508359 487.426396 
L 573.78756 488.4393 
L 574.06676 485.747814 
L 574.345961 485.166957 
L 574.625162 489.871848 
L 574.904363 491.149138 
L 575.183563 491.375826 
L 575.462764 484.734415 
L 575.741965 485.888192 
L 576.021165 491.344576 
L 576.300366 143.012487 
L 576.579567 440.4256 
L 576.858767 437.702368 
L 577.137968 437.262385 
L 577.417169 428.339709 
L 577.97557 436.993534 
L 578.254771 420.383805 
L 578.813172 443.375519 
L 579.092373 444.889418 
L 579.371573 445.730693 
L 579.650774 446.115616 
L 579.929975 407.946225 
L 580.488376 443.252999 
L 580.767577 450.171694 
L 581.325978 440.657744 
L 581.884379 456.099807 
L 582.16358 441.917673 
L 582.442781 446.269883 
L 582.721981 456.402388 
L 583.001182 452.709408 
L 583.838784 469.192153 
L 584.117985 468.941655 
L 584.397185 468.482327 
L 584.676386 461.291804 
L 585.234788 472.043361 
L 585.513988 467.669821 
L 585.793189 465.308199 
L 586.07239 472.697631 
L 586.35159 475.391597 
L 586.630791 475.396557 
L 586.909992 479.548866 
L 587.189192 479.890138 
L 587.468393 474.914411 
L 588.026794 475.788921 
L 588.305995 484.04691 
L 588.585196 487.390186 
L 588.864396 480.671889 
L 589.143597 479.799859 
L 589.422798 484.444234 
L 589.701998 483.699686 
L 589.981199 484.155542 
L 590.2604 481.637669 
L 590.5396 483.888179 
L 590.818801 482.844026 
L 591.098002 477.729906 
L 591.656403 480.378236 
L 591.935604 474.930285 
L 592.214804 476.468985 
L 592.494005 480.139643 
L 592.773206 479.307297 
L 593.052406 480.915442 
L 593.331607 467.906926 
L 593.610808 478.610864 
L 593.890008 481.124769 
L 594.44841 476.429798 
L 594.72761 477.284466 
L 595.006811 479.887658 
L 595.286012 472.595448 
L 595.565212 470.126682 
L 596.123614 474.294864 
L 596.402815 471.162403 
L 596.682015 462.374153 
L 596.961216 460.961941 
L 597.240417 437.039169 
L 597.519617 447.493601 
L 597.798818 437.671614 
L 598.078019 448.039736 
L 598.357219 470.082535 
L 598.63642 460.982279 
L 598.915621 471.554271 
L 599.194821 461.608771 
L 599.474022 461.896967 
L 599.753223 460.392493 
L 600.032423 466.663367 
L 600.311624 460.676225 
L 600.590825 458.908853 
L 600.870025 453.923206 
L 601.149226 470.534919 
L 601.428427 465.043813 
L 601.707627 457.356263 
L 601.986828 466.306717 
L 602.266029 458.36123 
L 602.545229 460.356779 
L 602.82443 456.007544 
L 603.103631 465.318616 
L 603.382831 457.920751 
L 603.662032 458.075514 
L 603.941233 455.517958 
L 604.220433 461.234264 
L 604.499634 459.936141 
L 605.058035 467.434701 
L 605.337236 457.232751 
L 605.616437 463.007093 
L 605.895637 453.190562 
L 606.174838 457.230271 
L 606.454039 459.04427 
L 606.73324 420.781625 
L 607.01244 425.325305 
L 607.291641 470.082535 
L 607.570842 468.906933 
L 607.850042 454.449995 
L 608.129243 474.810244 
L 608.408444 473.056265 
L 608.687644 475.062726 
L 608.966845 467.818632 
L 609.246046 471.586017 
L 609.525246 473.214996 
L 609.804447 470.959525 
L 610.083648 456.698025 
L 610.362848 469.927772 
L 610.642049 472.652492 
L 610.92125 449.869112 
L 611.20045 92.280515 
L 611.479651 478.492311 
L 612.038052 485.168941 
L 612.317253 487.888701 
L 612.596454 482.528051 
L 612.875654 490.091096 
L 613.154855 481.255226 
L 613.713256 488.715095 
L 613.992457 481.88023 
L 614.271658 490.342586 
L 614.550858 481.615347 
L 614.830059 484.072208 
L 615.10926 488.492871 
L 615.38846 482.605929 
L 615.667661 486.283036 
L 615.946862 480.619805 
L 616.226062 485.337593 
L 616.505263 487.944753 
L 616.784464 483.345517 
L 617.063665 485.744838 
L 617.342865 456.57352 
L 617.622066 482.396106 
L 617.901267 482.127255 
L 618.180467 479.557298 
L 618.459668 464.590437 
L 618.738869 439.051087 
L 619.018069 425.537111 
L 619.29727 427.740995 
L 619.576471 360.068439 
L 619.855671 432.664637 
L 620.414073 483.707126 
L 620.693273 491.777119 
L 620.972474 490.91997 
L 621.251675 487.851994 
L 621.530875 489.880281 
L 622.089277 492.038529 
L 622.368477 490.181374 
L 622.647678 489.507759 
L 622.926879 491.318286 
L 623.206079 479.711069 
L 623.48528 457.61817 
L 623.764481 375.212881 
L 624.043681 434.574868 
L 624.322882 434.143813 
L 624.602083 430.590715 
L 624.881283 438.632433 
L 625.160484 452.130039 
L 625.439685 491.037034 
L 625.718885 490.078199 
L 626.277287 491.279595 
L 626.556487 490.380284 
L 626.835688 491.513724 
L 627.114889 491.513228 
L 627.39409 490.803402 
L 627.67329 491.762237 
L 627.952491 491.484458 
L 628.231692 489.345555 
L 628.510892 489.403095 
L 628.790093 486.805857 
L 629.069294 490.310343 
L 629.348494 487.8763 
L 629.627695 490.012226 
L 629.906896 486.623316 
L 630.186096 489.703197 
L 630.465297 488.122333 
L 630.744498 490.000817 
L 631.023698 490.308855 
L 631.302899 486.475497 
L 631.5821 488.936823 
L 631.8613 487.580663 
L 632.140501 489.696748 
L 632.419702 486.144146 
L 632.698902 489.27611 
L 632.978103 488.89962 
L 633.257304 490.446753 
L 633.536504 490.196751 
L 633.815705 489.267182 
L 634.094906 490.568777 
L 634.374106 490.443281 
L 634.653307 490.579194 
L 634.932508 490.88376 
L 635.211708 490.611932 
L 635.490909 490.685346 
L 635.77011 490.907073 
L 636.04931 490.571258 
L 636.328511 489.849031 
L 636.607712 490.466594 
L 636.886912 490.306871 
L 637.166113 489.748336 
L 637.445314 490.944276 
L 637.724514 490.068774 
L 638.282916 490.881775 
L 638.562117 489.944766 
L 638.841317 489.727998 
L 639.399719 490.667984 
L 639.678919 490.905585 
L 639.95812 490.156572 
L 640.237321 490.706179 
L 640.516521 489.768673 
L 640.795722 490.690802 
L 641.074923 490.989415 
L 641.354123 490.691794 
L 641.633324 491.168484 
L 641.912525 490.630782 
L 642.191725 489.703197 
L 642.750127 490.595563 
L 643.308528 490.286038 
L 643.587729 490.77364 
L 643.866929 489.541489 
L 644.14613 490.111433 
L 644.425331 490.161037 
L 644.704531 488.934838 
L 644.983732 489.403591 
L 645.262933 490.793481 
L 645.542133 488.078186 
L 645.821334 490.364411 
L 646.100535 489.250813 
L 646.379735 489.106467 
L 646.658936 490.325224 
L 646.938137 489.014204 
L 647.217337 489.066784 
L 647.496538 490.307863 
L 647.775739 489.8029 
L 648.054939 485.715572 
L 648.33414 487.651596 
L 648.613341 487.587112 
L 648.892542 487.659533 
L 649.171742 490.541992 
L 649.450943 490.751814 
L 649.730144 490.291494 
L 650.009344 490.423935 
L 650.288545 490.243875 
L 650.846946 490.20072 
L 651.126147 490.466594 
L 651.405348 490.110937 
L 651.684548 490.133755 
L 651.963749 490.708659 
L 652.24295 489.761729 
L 652.52215 488.107452 
L 652.801351 488.144159 
L 653.080552 490.520166 
L 653.359752 490.740406 
L 653.638953 490.15062 
L 653.918154 490.097544 
L 654.197354 490.202704 
L 654.476555 490.115402 
L 654.755756 489.895658 
L 655.034956 490.486932 
L 655.314157 489.321746 
L 655.872558 490.692786 
L 656.151759 490.2032 
L 656.43096 489.482957 
L 656.71016 490.230482 
L 656.989361 489.897146 
L 657.268562 490.612925 
L 657.547762 490.935347 
L 657.826963 489.63524 
L 658.106164 486.466569 
L 658.385364 486.440279 
L 658.664565 486.628772 
L 659.502167 490.985447 
L 659.781368 489.63772 
L 660.339769 488.922438 
L 660.61897 489.525616 
L 660.898171 488.338604 
L 661.177371 487.640187 
L 661.456572 489.413512 
L 661.735773 490.068278 
L 662.014973 489.32373 
L 662.294174 489.638712 
L 662.573375 489.594069 
L 662.852575 489.347043 
L 663.131776 489.389206 
L 663.410977 490.708659 
L 663.690177 490.489908 
L 663.969378 489.796451 
L 664.248579 490.678897 
L 664.527779 489.162022 
L 664.80698 486.277579 
L 665.086181 486.448711 
L 665.365381 489.231467 
L 665.644582 490.664016 
L 665.923783 489.965103 
L 666.202983 473.472438 
L 666.482184 489.217082 
L 666.761385 491.196758 
L 667.040585 489.821253 
L 667.319786 490.093576 
L 667.598987 490.586139 
L 667.878187 489.835638 
L 668.157388 487.85497 
L 668.436589 487.90755 
L 668.715789 489.830677 
L 668.99499 490.681377 
L 669.274191 489.692284 
L 669.553392 490.122842 
L 669.832592 490.274629 
L 670.111793 490.26818 
L 670.390994 490.396653 
L 670.670194 490.226017 
L 670.949395 489.152598 
L 671.228596 489.829685 
L 671.507796 489.415496 
L 671.786997 487.830665 
L 672.066198 489.941789 
L 672.345398 488.703686 
L 672.624599 490.29447 
L 672.9038 490.153596 
L 673.183 490.486932 
L 673.462201 487.492865 
L 673.741402 487.865883 
L 674.299803 490.095064 
L 674.579004 486.984925 
L 674.858204 488.402097 
L 675.137405 488.057849 
L 675.416606 488.161024 
L 675.695806 488.937319 
L 675.975007 488.116381 
L 676.254208 486.440775 
L 676.533408 486.460616 
L 677.09181 487.432845 
L 677.37101 488.191282 
L 677.650211 488.154576 
L 677.929412 490.934851 
L 678.208612 490.708659 
L 678.487813 491.002312 
L 678.767014 488.437315 
L 679.046214 489.882265 
L 679.325415 486.59901 
L 679.604616 487.504274 
L 679.883816 489.749824 
L 680.163017 485.384717 
L 680.721419 443.663219 
L 681.000619 431.546078 
L 681.27982 432.175051 
L 681.559021 368.623553 
L 681.838221 434.006412 
L 682.396623 483.325676 
L 682.675823 489.280079 
L 682.955024 489.228987 
L 683.513425 491.169476 
L 683.792626 490.489908 
L 684.071827 491.922953 
L 684.351027 490.102009 
L 684.630228 487.247328 
L 684.909429 490.245363 
L 685.188629 480.731413 
L 685.46783 460.905393 
L 685.747031 381.30419 
L 686.026231 436.91516 
L 686.305432 436.68748 
L 686.584633 431.640821 
L 686.863833 438.764875 
L 687.143034 451.602754 
L 687.422235 491.256778 
L 687.701435 490.927907 
L 687.980636 490.845565 
L 688.259837 490.632766 
L 688.539037 490.898641 
L 688.818238 490.518182 
L 689.097439 487.33711 
L 689.376639 489.721054 
L 689.65584 488.522633 
L 689.935041 489.832166 
L 690.214241 489.648633 
L 690.493442 485.905057 
L 690.772643 488.433843 
L 691.051844 484.472508 
L 691.331044 486.945242 
L 691.610245 485.022611 
L 691.889446 488.690789 
L 692.168646 482.680334 
L 692.447847 486.478474 
L 692.727048 486.256746 
L 693.006248 487.273121 
L 693.285449 487.216077 
L 693.56465 486.869349 
L 693.84385 488.702694 
L 694.123051 489.086625 
L 694.402252 486.838595 
L 694.681452 487.766676 
L 694.960653 489.50379 
L 695.239854 485.316264 
L 695.519054 487.548421 
L 695.798255 483.302362 
L 696.077456 485.924403 
L 696.356656 485.090568 
L 696.635857 486.467065 
L 696.915058 489.339107 
L 697.194258 488.085627 
L 697.473459 489.456667 
L 697.75266 489.099522 
L 698.03186 490.32572 
L 698.311061 489.844566 
L 698.590262 484.872312 
L 698.869462 485.567753 
L 699.148663 489.118371 
L 699.427864 491.06134 
L 699.986265 489.116387 
L 700.265466 490.479491 
L 700.544666 489.525616 
L 700.823867 489.054383 
L 701.103068 490.470563 
L 701.382269 490.075719 
L 701.661469 489.149126 
L 701.94067 490.507765 
L 702.219871 489.164503 
L 702.499071 489.109939 
L 703.057473 490.950228 
L 703.336673 489.549922 
L 703.615874 490.228994 
L 704.174275 488.812318 
L 704.453476 490.377804 
L 705.011877 489.53008 
L 705.291078 490.410046 
L 705.570279 488.012213 
L 705.849479 487.045937 
L 706.12868 489.572243 
L 706.407881 490.068278 
L 706.687081 488.571741 
L 706.966282 489.004779 
L 707.245483 489.893178 
L 707.524683 489.399623 
L 707.803884 489.818773 
L 708.083085 488.10894 
L 708.362285 490.646159 
L 708.641486 489.716093 
L 708.920687 490.582666 
L 709.199887 490.443281 
L 709.479088 490.520662 
L 710.037489 490.183854 
L 710.31669 490.397645 
L 710.595891 489.815796 
L 710.875091 490.225521 
L 711.154292 490.24189 
L 711.433493 485.747318 
L 711.712693 487.50973 
L 711.991894 464.222875 
L 712.271095 486.278571 
L 712.550296 488.282553 
L 712.829496 486.815777 
L 713.108697 487.07818 
L 713.387898 489.49883 
L 713.667098 488.832159 
L 713.946299 489.518175 
L 714.2255 488.356462 
L 714.5047 490.169469 
L 714.783901 490.221553 
L 715.063102 490.48842 
L 715.342302 489.54893 
L 715.621503 490.105977 
L 715.900704 490.20568 
L 716.179904 491.253802 
L 716.459105 489.963615 
L 717.017506 489.655081 
L 717.296707 490.784057 
L 717.575908 487.202188 
L 717.855108 488.088603 
L 718.134309 487.842074 
L 718.41351 488.582654 
L 718.69271 486.104463 
L 718.971911 485.159021 
L 719.251112 488.543467 
L 719.530312 489.799427 
L 719.809513 488.178881 
L 720.367914 490.214609 
L 720.647115 489.176407 
L 720.926316 488.885731 
L 721.205516 489.480973 
L 721.484717 489.119363 
L 721.763918 482.05781 
L 722.043118 483.844528 
L 722.322319 487.548917 
L 722.60152 488.052888 
L 722.880721 488.292969 
L 723.159921 487.968562 
L 723.439122 489.641688 
L 723.718323 487.754771 
L 723.997523 488.323723 
L 724.276724 489.866392 
L 724.555925 489.891194 
L 724.835125 488.128782 
L 725.393527 489.783058 
L 725.672727 488.766683 
L 725.951928 490.77612 
L 726.231129 491.018681 
L 726.510329 487.928384 
L 726.78953 489.283551 
L 727.068731 488.335628 
L 727.347931 488.418466 
L 727.627132 490.320264 
L 727.906333 490.858958 
L 728.185533 490.874335 
L 728.464734 489.086625 
L 728.743935 490.105481 
L 729.023135 490.401614 
L 729.302336 489.66649 
L 729.860737 489.499326 
L 730.139938 489.333154 
L 730.419139 488.765691 
L 730.698339 489.590597 
L 730.97754 484.60991 
L 731.535941 488.936327 
L 731.815142 483.972505 
L 732.094343 487.329173 
L 732.373543 483.713079 
L 732.931945 488.267175 
L 733.211146 488.681365 
L 733.490346 488.542971 
L 733.769547 489.172439 
L 734.048748 489.072736 
L 734.327948 488.5018 
L 734.607149 487.209629 
L 734.88635 487.538996 
L 735.16555 482.952161 
L 735.444751 484.343539 
L 735.723952 487.87382 
L 736.003152 487.592568 
L 736.282353 489.571747 
L 736.561554 484.727966 
L 736.840754 486.333135 
L 737.119955 489.029581 
L 737.399156 489.374325 
L 737.678356 489.122836 
L 737.957557 487.151593 
L 738.236758 487.474016 
L 738.515958 489.586628 
L 738.795159 489.840598 
L 739.07436 489.707165 
L 739.35356 484.833126 
L 740.191162 491.042491 
L 740.470363 489.067776 
L 740.749564 490.250323 
L 741.028764 490.930387 
L 741.587166 490.058854 
L 741.866366 490.002306 
L 742.145567 489.384742 
L 742.424768 485.917458 
L 742.703968 486.71161 
L 743.26237 490.641695 
L 743.541571 489.58018 
L 743.820771 490.424431 
L 744.099972 490.349034 
L 744.379173 490.454689 
L 744.937574 489.395159 
L 745.216775 490.604492 
L 745.495975 464.135573 
L 745.775176 486.923913 
L 746.054377 490.009746 
L 746.333577 489.788018 
L 746.612778 490.384252 
L 746.891979 207.051091 
L 747.171179 422.935904 
L 747.45038 418.18885 
L 747.729581 453.452965 
L 748.008781 433.445396 
L 748.287982 446.281788 
L 748.567183 446.720779 
L 748.846383 429.214218 
L 749.125584 437.59324 
L 749.404785 449.917724 
L 749.683985 450.479235 
L 749.963186 457.785334 
L 750.242387 456.605763 
L 750.521587 450.492132 
L 750.800788 459.66729 
L 751.079989 462.884077 
L 751.359189 458.005573 
L 751.63839 449.537761 
L 751.917591 449.541729 
L 752.196791 455.3751 
L 752.475992 452.481232 
L 752.755193 452.36764 
L 753.034393 457.171242 
L 753.313594 447.103718 
L 753.592795 441.614595 
L 753.871995 445.294182 
L 754.151196 430.203312 
L 754.430397 434.833302 
L 754.709598 416.774159 
L 754.988798 434.581316 
L 755.267999 422.549493 
L 755.5472 419.380326 
L 756.105601 446.732187 
L 756.664002 435.332313 
L 756.943203 444.688028 
L 757.222404 441.819458 
L 757.501604 428.382864 
L 757.780805 448.930118 
L 758.060006 455.472323 
L 758.339206 436.859108 
L 758.618407 427.416588 
L 758.897608 423.886803 
L 759.456009 446.248057 
L 759.73521 454.40436 
L 760.01441 443.996059 
L 760.293611 450.00453 
L 760.572812 451.082414 
L 760.852012 439.852679 
L 761.131213 442.940497 
L 761.410414 437.073396 
L 761.689614 426.461224 
L 761.968815 425.066374 
L 762.248016 444.290208 
L 762.527216 193.752891 
L 762.806417 469.081537 
L 763.085618 470.922322 
L 763.364818 465.59838 
L 763.644019 472.663405 
L 763.92322 471.020537 
L 764.20242 462.340422 
L 764.481621 460.816603 
L 764.760822 462.139528 
L 765.040023 465.568121 
L 765.319223 466.85434 
L 765.598424 470.085511 
L 765.877625 470.385117 
L 766.156825 473.956568 
L 766.436026 479.344003 
L 766.715227 478.22346 
L 766.994427 474.509151 
L 767.273628 478.690229 
L 767.552829 474.507663 
L 767.832029 474.32165 
L 768.11123 472.250208 
L 768.390431 473.612816 
L 768.669631 474.140101 
L 768.948832 471.682744 
L 769.228033 479.214538 
L 769.507233 474.876713 
L 769.786434 474.78445 
L 770.065635 477.669885 
L 770.344835 473.532458 
L 770.624036 474.35786 
L 770.903237 476.686744 
L 771.182437 476.361345 
L 771.740839 479.611366 
L 772.020039 478.433283 
L 772.29924 473.558252 
L 772.578441 478.500744 
L 772.857641 476.593986 
L 773.136842 470.768056 
L 773.416043 469.603366 
L 773.695243 472.461023 
L 773.974444 477.683774 
L 774.253645 475.280981 
L 774.812046 474.076608 
L 775.091247 475.785945 
L 775.370448 473.422834 
L 775.649648 476.087038 
L 775.928849 467.902462 
L 776.20805 471.757149 
L 776.48725 471.888102 
L 776.766451 463.757098 
L 777.045652 467.920815 
L 777.324852 470.162397 
L 777.604053 475.871263 
L 777.883254 466.871701 
L 778.162454 467.183707 
L 778.441655 459.192089 
L 778.720856 464.653929 
L 779.000056 467.468927 
L 779.279257 461.926233 
L 779.558458 473.549323 
L 779.837658 473.869266 
L 780.116859 459.201513 
L 780.67526 464.310673 
L 780.954461 452.543237 
L 781.233662 472.318165 
L 781.512862 468.98977 
L 781.792063 464.088945 
L 782.071264 469.648505 
L 782.350464 463.208979 
L 782.629665 459.367685 
L 782.908866 471.59693 
L 783.188066 470.691666 
L 783.467267 464.373173 
L 783.746468 474.343971 
L 784.025668 474.07264 
L 784.58407 468.235301 
L 784.86327 463.19509 
L 785.142471 472.085524 
L 785.421672 466.303245 
L 785.700873 458.059641 
L 785.980073 460.176718 
L 786.538475 473.178785 
L 786.817675 466.616739 
L 787.096876 466.744716 
L 787.376077 469.210506 
L 787.655277 468.460501 
L 787.934478 464.341923 
L 788.213679 468.651971 
L 788.492879 450.581418 
L 788.77208 471.988301 
L 789.051281 475.278005 
L 789.330481 465.875663 
L 789.609682 469.844439 
L 789.888883 467.616746 
L 790.168083 467.858315 
L 790.447284 475.103897 
L 790.726485 467.895517 
L 791.005685 466.77547 
L 791.284886 466.326063 
L 791.564087 469.761601 
L 791.843287 479.341523 
L 792.122488 476.410453 
L 792.401689 474.71699 
L 792.680889 476.993294 
L 792.96009 470.302279 
L 793.239291 468.850881 
L 793.518491 472.403979 
L 793.797692 478.444196 
L 794.076893 480.055317 
L 794.356093 480.29639 
L 794.635294 472.486817 
L 794.914495 474.253197 
L 795.193695 480.180318 
L 795.472896 474.793379 
L 795.752097 475.583067 
L 796.031297 479.792419 
L 796.310498 480.894112 
L 796.8689 476.165908 
L 797.1481 472.634635 
L 797.427301 475.003698 
L 797.706502 475.045365 
L 797.985702 476.523053 
L 798.264903 481.719018 
L 798.544104 477.779013 
L 798.823304 480.694706 
L 799.102505 472.884637 
L 799.381706 473.116781 
L 799.660906 476.761149 
L 799.940107 474.644072 
L 800.219308 476.65599 
L 800.498508 477.195676 
L 800.777709 483.913973 
L 801.05691 477.890621 
L 801.33611 479.845495 
L 801.615311 475.937235 
L 801.894512 474.553794 
L 802.452913 481.184789 
L 802.732114 482.4219 
L 803.011314 481.112864 
L 803.290515 481.083102 
L 803.569716 480.549864 
L 803.848916 477.122263 
L 804.128117 478.016614 
L 804.407318 477.569686 
L 804.686518 478.263143 
L 804.965719 481.784991 
L 805.24492 482.386681 
L 805.52412 474.468476 
L 805.803321 473.632657 
L 806.082522 469.898506 
L 806.361722 478.657987 
L 806.640923 478.507192 
L 806.920124 480.492324 
L 807.199325 477.850938 
L 807.478525 481.529037 
L 807.757726 474.936733 
L 808.036927 478.175345 
L 808.595328 482.20166 
L 808.874529 479.844503 
L 809.153729 480.579626 
L 809.43293 485.370332 
L 809.712131 289.20737 
L 809.991331 479.823173 
L 810.270532 481.737372 
L 810.549733 486.124801 
L 810.828933 487.198716 
L 811.108134 487.723025 
L 811.387335 478.87773 
L 811.666535 483.467046 
L 811.945736 481.491834 
L 812.224937 484.553362 
L 812.504137 481.949675 
L 812.783338 484.482429 
L 813.062539 480.614845 
L 813.341739 484.41596 
L 813.62094 482.156025 
L 813.900141 484.41596 
L 814.179341 482.177851 
L 814.458542 482.408011 
L 814.737743 479.87228 
L 815.575345 488.5018 
L 815.854545 488.945751 
L 816.412947 489.287023 
L 816.692147 488.414002 
L 816.971348 479.537953 
L 817.250549 481.393124 
L 817.52975 488.176897 
L 817.80895 487.523619 
L 818.088151 487.183339 
L 818.367352 479.968511 
L 818.646552 482.281522 
L 818.925753 479.732399 
L 819.204954 481.457112 
L 819.484154 481.934794 
L 819.763355 484.051871 
L 820.042556 480.352938 
L 820.321756 481.00324 
L 820.600957 488.275608 
L 821.159358 487.499809 
L 821.438559 480.965045 
L 821.71776 480.883696 
L 821.99696 480.008194 
L 822.276161 483.149087 
L 822.555362 479.7572 
L 822.834562 480.982407 
L 823.113763 478.732888 
L 823.392964 479.616822 
L 823.672164 479.539937 
L 823.951365 481.864853 
L 824.230566 479.508687 
L 824.509766 480.470995 
L 824.788967 479.228427 
L 825.068168 480.424367 
L 825.347368 478.772571 
L 825.626569 479.474956 
L 825.90577 481.730427 
L 826.18497 482.232415 
L 826.464171 481.62378 
L 826.743372 483.18381 
L 827.022572 487.587112 
L 827.301773 489.181864 
L 827.580974 487.965586 
L 827.860175 480.526551 
L 828.139375 481.936778 
L 828.418576 488.569757 
L 828.697777 488.863409 
L 828.976977 488.364894 
L 829.256178 441.730171 
L 829.535379 486.917464 
L 829.814579 488.92343 
L 830.09378 487.944257 
L 830.372981 486.2875 
L 830.652181 488.499816 
L 830.931382 489.130276 
L 831.210583 481.502251 
L 831.489783 485.524598 
L 831.768984 487.832153 
L 832.327385 488.427891 
L 832.606586 482.104934 
L 832.885787 479.26315 
L 833.723389 428.135342 
L 834.002589 430.229602 
L 834.28179 367.24656 
L 834.560991 434.597189 
L 835.119392 483.715559 
L 835.398593 491.416501 
L 835.677793 490.456674 
L 835.956994 487.043457 
L 836.236195 489.849527 
L 836.794596 491.235448 
L 837.352997 487.290979 
L 837.632198 489.989905 
L 837.911399 479.153526 
L 838.190599 457.317077 
L 838.4698 376.060108 
L 838.749001 434.328834 
L 839.307402 431.70977 
L 839.586603 438.75793 
L 839.865804 452.526867 
L 840.145004 489.218074 
L 840.703406 489.186824 
L 840.982606 490.993383 
L 841.261807 488.75825 
L 841.541008 488.635233 
L 841.820208 490.470563 
L 842.099409 488.557852 
L 842.65781 489.793475 
L 842.937011 489.683851 
L 843.216212 489.425417 
L 843.495412 491.379299 
L 843.774613 490.79993 
L 844.333014 491.509756 
L 844.612215 489.784546 
L 844.891416 490.69229 
L 845.170616 490.361435 
L 845.449817 487.600504 
L 846.56662 491.034058 
L 846.84582 490.757271 
L 847.125021 491.057868 
L 847.404222 490.662528 
L 847.683422 490.57225 
L 847.962623 490.078199 
L 848.241824 491.155587 
L 848.800225 490.006274 
L 849.079426 490.285045 
L 849.637827 489.597541 
L 849.917028 489.872344 
L 850.196229 488.684341 
L 850.475429 490.486436 
L 851.033831 489.542481 
L 851.313031 490.946756 
L 851.592232 490.403102 
L 851.871433 490.399134 
L 852.150633 490.665504 
L 852.429834 489.265694 
L 852.988235 490.80737 
L 853.267436 490.853998 
L 853.546637 489.803892 
L 853.825837 490.400622 
L 854.105038 490.047445 
L 854.384239 490.560841 
L 854.663439 489.999825 
L 854.94264 489.913019 
L 855.221841 490.598044 
L 855.501041 490.245363 
L 855.780242 491.393684 
L 856.059443 490.386733 
L 856.338643 490.48842 
L 856.897045 491.358465 
L 857.176245 490.312823 
L 857.455446 491.674439 
L 857.734647 491.223048 
L 858.013847 490.192783 
L 858.293048 490.784057 
L 858.851449 489.995857 
L 859.409851 491.292988 
L 859.689052 490.256771 
L 859.968252 490.902113 
L 860.247453 490.35449 
L 860.526654 490.386237 
L 860.805854 487.76618 
L 861.085055 488.885731 
L 861.643456 487.851994 
L 861.922657 490.008258 
L 862.201858 490.28703 
L 862.481058 489.552898 
L 862.760259 483.249782 
L 863.03946 490.998344 
L 863.31866 486.241369 
L 863.597861 489.139205 
L 863.877062 486.461608 
L 864.156262 487.606457 
L 864.435463 487.786022 
L 864.714664 486.167956 
L 865.552266 489.028093 
L 865.831466 488.433843 
L 866.110667 489.430873 
L 866.389868 488.311819 
L 866.669068 488.492375 
L 866.948269 489.89169 
L 867.22747 489.958655 
L 867.50667 488.690789 
L 867.785871 486.471529 
L 868.344272 488.977001 
L 868.902674 488.790988 
L 869.181874 487.388202 
L 869.740276 490.504789 
L 870.019476 488.463109 
L 870.577878 490.14814 
L 870.857079 489.965599 
L 871.136279 490.180382 
L 871.41548 490.254787 
L 871.694681 490.123834 
L 872.253082 489.458155 
L 872.532283 490.930387 
L 872.811483 490.451217 
L 873.090684 489.739903 
L 873.369885 490.238418 
L 873.928286 490.592587 
L 874.207487 489.432361 
L 874.486687 490.680881 
L 874.765888 490.061334 
L 875.045089 490.082663 
L 875.324289 490.798442 
L 875.60349 490.036036 
L 876.161891 490.838124 
L 876.441092 490.044965 
L 876.720293 490.221553 
L 876.999493 490.8912 
L 877.278694 488.630769 
L 877.557895 491.33912 
L 878.116296 487.884733 
L 878.395497 488.171937 
L 878.674697 486.236905 
L 878.953898 486.666967 
L 879.233099 489.627799 
L 879.512299 489.06976 
L 879.7915 489.744367 
L 880.349901 488.810334 
L 880.908303 490.074231 
L 881.187504 489.789507 
L 881.745905 490.087128 
L 882.025106 490.118874 
L 882.304306 489.864408 
L 882.583507 488.626801 
L 882.862708 490.278101 
L 883.141908 488.861425 
L 883.70031 489.563811 
L 883.97951 488.924422 
L 884.258711 486.291468 
L 884.537912 486.707146 
L 884.817112 490.665008 
L 885.096313 488.536522 
L 885.375514 489.623831 
L 885.933915 489.572739 
L 886.213116 489.816292 
L 886.492316 489.484445 
L 886.771517 490.636238 
L 887.050718 488.749321 
L 887.329918 483.01863 
L 887.609119 483.231925 
L 887.88832 483.902068 
L 888.16752 483.273592 
L 888.446721 490.595067 
L 888.725922 488.935334 
L 889.284323 491.119376 
L 889.563524 490.825724 
L 889.842724 491.49041 
L 890.121925 490.03306 
L 890.401126 489.683355 
L 890.680326 490.227009 
L 890.959527 488.608943 
L 891.238728 490.20072 
L 891.517929 490.40211 
L 891.797129 488.916485 
L 892.355531 490.414511 
L 892.634731 488.745353 
L 892.913932 489.970559 
L 893.193133 489.977504 
L 893.472333 489.420953 
L 893.751534 489.694764 
L 894.030735 490.492388 
L 894.309935 489.398135 
L 894.589136 489.855975 
L 894.868337 489.916492 
L 895.147537 489.488909 
L 895.426738 490.250323 
L 895.705939 489.970559 
L 895.985139 485.280053 
L 896.26434 487.058834 
L 896.543541 489.663514 
L 896.822741 490.623341 
L 897.381143 489.392679 
L 897.660343 490.044965 
L 897.939544 490.353994 
L 898.218745 485.163485 
L 898.497945 486.561311 
L 898.777146 489.037518 
L 899.056347 489.739903 
L 899.335547 489.801907 
L 899.614748 484.048894 
L 899.893949 485.332633 
L 900.173149 489.696748 
L 900.45235 489.665498 
L 900.731551 490.045957 
L 901.010751 489.476509 
L 901.289952 491.1789 
L 901.569153 490.40211 
L 901.848354 484.252269 
L 902.127554 486.665975 
L 902.406755 485.418447 
L 902.685956 485.893152 
L 902.965156 484.469036 
L 903.244357 486.519644 
L 903.523558 491.108463 
L 903.802758 485.527079 
L 904.081959 486.301389 
L 904.36116 484.762193 
L 904.64036 485.020627 
L 904.919561 485.477475 
L 905.198762 486.277579 
L 905.477962 485.044437 
L 905.757163 486.771134 
L 906.036364 485.100489 
L 906.315564 484.899594 
L 906.873966 487.468063 
L 907.153166 486.036506 
L 907.432367 485.962101 
L 907.711568 483.543435 
L 907.990768 484.849991 
L 908.269969 483.916453 
L 908.54917 484.691756 
L 908.82837 483.690757 
L 909.107571 483.8981 
L 909.386772 485.702179 
L 909.665972 486.73542 
L 909.945173 483.823695 
L 910.224374 485.45565 
L 910.503574 486.300397 
L 910.782775 488.489399 
L 911.061976 484.545921 
L 911.341176 487.050898 
L 911.620377 455.163293 
L 911.899578 177.651597 
L 912.178778 423.166065 
L 912.457979 428.644274 
L 912.73718 407.012687 
L 913.016381 406.099487 
L 913.574782 412.896158 
L 914.133183 380.46341 
L 914.970785 447.732194 
L 915.249986 422.601081 
L 915.529187 431.043099 
L 915.808387 400.703123 
L 916.087588 439.00942 
L 916.366789 438.574397 
L 916.645989 447.563046 
L 916.92519 431.119984 
L 917.204391 422.67747 
L 917.483591 423.3243 
L 917.762792 431.445879 
L 918.041993 433.460277 
L 918.321193 426.45676 
L 918.600394 441.981165 
L 918.879595 439.389879 
L 919.158795 439.472716 
L 919.437996 434.255421 
L 919.717197 454.484717 
L 919.996397 454.290768 
L 920.275598 433.119005 
L 920.554799 425.780665 
L 920.833999 439.788195 
L 921.1132 441.734636 
L 921.392401 454.624103 
L 921.671601 430.412639 
L 921.950802 419.046495 
L 922.230003 423.544539 
L 922.509203 424.334723 
L 922.788404 427.321349 
L 923.067605 447.651836 
L 923.346806 440.334825 
L 923.626006 422.271218 
L 923.905207 437.914671 
L 924.184408 436.930041 
L 924.463608 418.829727 
L 924.742809 431.943402 
L 925.02201 422.845626 
L 925.30121 444.396359 
L 925.580411 427.625914 
L 925.859612 451.259994 
L 926.138812 451.702457 
L 926.418013 460.214913 
L 926.697214 445.673153 
L 926.976414 444.888922 
L 927.255615 465.74719 
L 927.534816 451.552159 
L 927.814016 445.544184 
L 928.372418 451.071997 
L 928.651618 435.516342 
L 928.930819 432.87694 
L 929.21002 426.510332 
L 929.48922 436.526765 
L 930.047622 446.398852 
L 930.326822 453.282329 
L 930.606023 431.811953 
L 930.885224 424.307441 
L 931.164424 446.250042 
L 931.443625 445.975734 
L 931.722826 434.446395 
L 932.002026 434.950862 
L 932.560428 449.313553 
L 932.839628 443.403297 
L 933.118829 451.812081 
L 933.39803 444.66273 
L 933.677231 446.608675 
L 933.956431 452.942049 
L 934.235632 450.455426 
L 934.794033 453.256535 
L 935.073234 468.601375 
L 935.352435 450.798186 
L 935.631635 459.038814 
L 935.910836 451.885494 
L 936.190037 463.383584 
L 936.469237 462.378121 
L 937.027639 416.541022 
L 937.306839 426.992974 
L 937.58604 442.437517 
L 937.865241 381.019466 
L 938.144441 428.976122 
L 938.702843 484.282031 
L 938.982043 491.774142 
L 939.261244 490.2657 
L 939.540445 487.722529 
L 939.819645 489.945262 
L 940.098846 490.812331 
L 940.378047 492.103013 
L 940.936448 487.91251 
L 941.215649 490.356971 
L 941.494849 479.721486 
L 941.77405 458.171745 
L 942.053251 376.009513 
L 942.332451 433.485575 
L 942.611652 434.306017 
L 942.890853 431.576833 
L 943.170053 437.62201 
L 943.449254 448.970793 
L 943.728455 489.228491 
L 944.007656 490.54844 
L 944.286856 490.080679 
L 944.566057 490.876319 
L 944.845258 489.35002 
L 945.403659 484.473004 
L 945.68286 486.690776 
L 945.96206 485.740374 
L 946.241261 487.451694 
L 946.520462 483.928854 
L 946.799662 486.042955 
L 947.078863 483.968537 
L 947.358064 486.662006 
L 947.637264 487.516179 
L 947.916465 487.984932 
L 948.195666 490.290998 
L 948.474866 489.154582 
L 948.754067 490.156572 
L 949.033268 489.719566 
L 949.312468 485.162989 
L 949.591669 485.798906 
L 949.87087 484.569731 
L 950.15007 485.366363 
L 950.429271 485.536503 
L 950.708472 486.505259 
L 950.987672 489.342579 
L 951.266873 489.69278 
L 951.546074 489.069264 
L 951.825274 485.415471 
L 952.104475 487.199708 
L 952.383676 491.057372 
L 952.662876 491.088126 
L 952.942077 490.218081 
L 953.221278 487.086612 
L 953.500478 486.70665 
L 953.779679 491.684856 
L 954.05888 490.707667 
L 954.33808 490.749334 
L 954.896482 490.650623 
L 955.175683 490.165501 
L 955.734084 490.644175 
L 956.013285 489.704685 
L 956.292485 486.991374 
L 956.571686 491.032074 
L 956.850887 489.10101 
L 957.130087 489.840102 
L 957.409288 489.980976 
L 957.967689 482.868827 
L 958.24689 484.106435 
L 958.526091 489.694764 
L 958.805291 490.249827 
L 959.363693 488.211123 
L 959.642893 488.570253 
L 959.922094 488.688309 
L 960.201295 490.32572 
L 960.480495 490.456178 
L 960.759696 489.310833 
L 961.318097 490.922946 
L 961.597298 490.170461 
L 961.876499 490.491892 
L 962.155699 490.113417 
L 962.4349 489.484445 
L 962.714101 490.368875 
L 963.272502 490.122346 
L 963.551703 490.243379 
L 963.830903 489.29744 
L 964.110104 489.24734 
L 964.389305 487.289987 
L 964.668505 489.87036 
L 964.947706 489.033053 
L 965.506108 486.345536 
L 965.785308 487.855466 
L 966.064509 487.635723 
L 966.34371 488.920949 
L 966.62291 487.561814 
L 966.902111 480.281509 
L 967.181312 482.199676 
L 967.460512 483.318731 
L 967.739713 480.959093 
L 968.018914 482.961586 
L 968.298114 480.456114 
L 968.577315 484.19076 
L 968.856516 484.546418 
L 969.135716 481.786479 
L 969.414917 484.208122 
L 969.694118 442.153785 
L 969.973318 484.370821 
L 970.252519 485.968054 
L 970.53172 490.506773 
L 970.81092 488.764202 
L 971.090121 489.004779 
L 971.369322 491.076221 
L 971.648522 491.848052 
L 971.927723 492.138728 
L 972.206924 490.997848 
L 972.486124 491.776622 
L 973.044526 491.282076 
L 973.323726 490.691794 
L 973.602927 490.374332 
L 973.882128 488.715095 
L 974.161328 488.765194 
L 974.440529 485.224497 
L 974.71973 488.380767 
L 974.99893 490.00925 
L 975.278131 490.829196 
L 975.557332 490.812827 
L 975.836533 491.71809 
L 976.115733 490.892192 
L 976.394934 484.512687 
L 976.674135 486.923913 
L 976.953335 491.703705 
L 977.232536 491.531581 
L 977.790937 492.328709 
L 978.070138 492.190316 
L 978.349339 492.450238 
L 978.628539 491.046955 
L 978.90774 491.217095 
L 979.466141 491.949739 
L 979.745342 492.33119 
L 980.024543 482.404539 
L 980.582944 458.312619 
L 980.862145 460.09388 
L 981.420546 467.230831 
L 981.699747 465.928243 
L 982.258148 473.731864 
L 982.537349 473.945655 
L 982.816549 471.253178 
L 983.09575 461.719387 
L 983.374951 462.010559 
L 983.654151 471.051291 
L 983.933352 390.806731 
L 984.212553 476.603906 
L 984.491753 479.367317 
L 984.770954 485.912994 
L 985.050155 484.208122 
L 985.329355 485.992855 
L 985.608556 486.628772 
L 985.887757 488.984938 
L 986.166958 487.300403 
L 986.725359 490.858958 
L 987.00456 489.040494 
L 987.28376 489.210138 
L 987.562961 489.041486 
L 987.842162 490.066294 
L 988.121362 489.934845 
L 988.400563 489.539009 
L 988.679764 489.883257 
L 988.958964 489.937325 
L 989.238165 488.657059 
L 989.517366 489.391687 
L 989.796566 489.37879 
L 990.075767 488.612416 
L 990.354968 488.704182 
L 990.634168 487.76122 
L 990.913369 487.68235 
L 991.19257 489.001803 
L 991.47177 489.537025 
L 991.750971 488.949719 
L 992.030172 489.7528 
L 992.309372 489.608454 
L 992.588573 489.147637 
L 992.867774 489.3525 
L 993.146974 489.043966 
L 993.426175 489.549922 
L 993.705376 489.763713 
L 993.984576 489.482461 
L 994.542978 489.990897 
L 994.822178 489.193769 
L 995.101379 490.313816 
L 995.38058 490.379292 
L 995.65978 489.033549 
L 995.938981 490.37334 
L 996.218182 489.886233 
L 996.218182 489.886233 
" clip-path="url(#p0be0b3d89a)" style="fill: none; stroke: #1f77b4; stroke-width: 1.5; stroke-linecap: square"/>
   </g>
   <g id="patch_3">
    <path d="M 144 512.64 
L 144 69.12 
" style="fill: none; stroke: #000000; stroke-width: 0.8; stroke-linejoin: miter; stroke-linecap: square"/>
   </g>
   <g id="patch_4">
    <path d="M 1036.8 512.64 
L 1036.8 69.12 
" style="fill: none; stroke: #000000; stroke-width: 0.8; stroke-linejoin: miter; stroke-linecap: square"/>
   </g>
   <g id="patch_5">
    <path d="M 144 512.64 
L 1036.8 512.64 
" style="fill: none; stroke: #000000; stroke-width: 0.8; stroke-linejoin: miter; stroke-linecap: square"/>
   </g>
   <g id="patch_6">
    <path d="M 144 69.12 
L 1036.8 69.12 
" style="fill: none; stroke: #000000; stroke-width: 0.8; stroke-linejoin: miter; stroke-linecap: square"/>
   </g>
   <g id="text_20">
    <!-- Histogram Differences -->
    <g transform="translate(523.2225 63.12) scale(0.12 -0.12)">
     <defs>
      <path id="DejaVuSans-44" d="M 1259 4147 
L 1259 519 
L 2022 519 
Q 2988 519 3436 956 
Q 3884 1394 3884 2338 
Q 3884 3275 3436 3711 
Q 2988 4147 2022 4147 
L 1259 4147 
z
M 628 4666 
L 1925 4666 
Q 3281 4666 3915 4102 
Q 4550 3538 4550 2338 
Q 4550 1131 3912 565 
Q 3275 0 1925 0 
L 628 0 
L 628 4666 
z
" transform="scale(0.015625)"/>
     </defs>
     <use xlink:href="#DejaVuSans-48"/>
     <use xlink:href="#DejaVuSans-69" x="75.195312"/>
     <use xlink:href="#DejaVuSans-73" x="102.978516"/>
     <use xlink:href="#DejaVuSans-74" x="155.078125"/>
     <use xlink:href="#DejaVuSans-6f" x="194.287109"/>
     <use xlink:href="#DejaVuSans-67" x="255.46875"/>
     <use xlink:href="#DejaVuSans-72" x="318.945312"/>
     <use xlink:href="#DejaVuSans-61" x="360.058594"/>
     <use xlink:href="#DejaVuSans-6d" x="421.337891"/>
     <use xlink:href="#DejaVuSans-20" x="518.75"/>
     <use xlink:href="#DejaVuSans-44" x="550.537109"/>
     <use xlink:href="#DejaVuSans-69" x="627.539062"/>
     <use xlink:href="#DejaVuSans-66" x="655.322266"/>
     <use xlink:href="#DejaVuSans-66" x="690.527344"/>
     <use xlink:href="#DejaVuSans-65" x="725.732422"/>
     <use xlink:href="#DejaVuSans-72" x="787.255859"/>
     <use xlink:href="#DejaVuSans-65" x="826.119141"/>
     <use xlink:href="#DejaVuSans-6e" x="887.642578"/>
     <use xlink:href="#DejaVuSans-63" x="951.021484"/>
     <use xlink:href="#DejaVuSans-65" x="1006.001953"/>
     <use xlink:href="#DejaVuSans-73" x="1067.525391"/>
    </g>
   </g>
  </g>
 </g>
 <defs>
  <clipPath id="p0be0b3d89a">
   <rect x="144" y="69.12" width="892.8" height="443.52"/>
  </clipPath>
 </defs>
</svg>
